<svg id="Grupo_155" data-name="Grupo 155" xmlns="http://www.w3.org/2000/svg" xmlns:xlink="http://www.w3.org/1999/xlink" width="180.66" height="66.31" viewBox="0 0 180.66 66.31">
  <defs>
    <clipPath id="clip-path">
      <rect id="Rectángulo_48" data-name="Rectángulo 48" width="180.66" height="66.31" fill="none"/>
    </clipPath>
  </defs>
  <g id="Grupo_154" data-name="Grupo 154" clip-path="url(#clip-path)">
    <path id="Trazado_101" data-name="Trazado 101" d="M24.77,0H1.85A1.831,1.831,0,0,0,.02,1.83V5.49a1.805,1.805,0,0,0,1.8,1.8H23.48a4.8,4.8,0,0,1,4.8,4.8v21.5a1.842,1.842,0,0,0,1.84,1.84h3.55a1.9,1.9,0,0,0,1.9-1.9V10.8A10.789,10.789,0,0,0,24.78.01Z" fill="#2d31fa"/>
    <path id="Trazado_102" data-name="Trazado 102" d="M24.55,37.5H12.09a4.8,4.8,0,0,1-4.8-4.8V12.62a1.856,1.856,0,0,0-1.86-1.86H1.84A1.835,1.835,0,0,0,0,12.6V33.95A10.853,10.853,0,0,0,10.85,44.8H24.59a1.852,1.852,0,0,0,1.85-1.85V39.39a1.878,1.878,0,0,0-1.88-1.88Z" fill="#ff0075"/>
    <path id="Trazado_103" data-name="Trazado 103" d="M64.15,14.5h7.12V27.27l-.27.21a16.892,16.892,0,0,1-5.32,2.85,19.213,19.213,0,0,1-6.05.99,15.87,15.87,0,0,1-7.93-2.01,14.611,14.611,0,0,1-5.54-5.6,16.184,16.184,0,0,1-2-8.05,16.211,16.211,0,0,1,2-8.05,14.507,14.507,0,0,1,5.58-5.6,16,16,0,0,1,8-2.01,16.552,16.552,0,0,1,6.74,1.34,13.655,13.655,0,0,1,5.13,3.92l.4.49-5,4.93-.49-.55A8.289,8.289,0,0,0,60.05,7.1,8.429,8.429,0,0,0,55.8,8.16a7.361,7.361,0,0,0-2.86,2.99,9.47,9.47,0,0,0-1.04,4.51,9.267,9.267,0,0,0,1.04,4.46,7.61,7.61,0,0,0,2.85,3.02,8.167,8.167,0,0,0,4.19,1.08,8.9,8.9,0,0,0,4.17-.96V14.5Z" fill="#2d31fa"/>
    <path id="Trazado_104" data-name="Trazado 104" d="M90.7,9.5c-1.85-1.76-4.52-2.64-7.91-2.64a17.748,17.748,0,0,0-5.09.73,13.475,13.475,0,0,0-4.3,2.1l-.46.34,2.81,5.84.69-.59a7.9,7.9,0,0,1,2.5-1.38,9.338,9.338,0,0,1,3.04-.52,4.383,4.383,0,0,1,3.11.94,3.28,3.28,0,0,1,.94,2.04H81.98c-3.19,0-5.61.65-7.19,1.93a6.64,6.64,0,0,0-2.44,5.42,7.272,7.272,0,0,0,1.03,3.83,7.092,7.092,0,0,0,2.98,2.66,10.067,10.067,0,0,0,4.46.94,8.18,8.18,0,0,0,5.64-1.8v1.47h7.05V17.43c0-3.49-.94-6.16-2.81-7.93M86.77,23.09a4.159,4.159,0,0,1-1.7,2.25,4.986,4.986,0,0,1-2.75.76,3.942,3.942,0,0,1-2.49-.72,2.371,2.371,0,0,1-.91-1.97c0-1.74,1.24-2.6,3.72-2.6h4.13v2.28Z" fill="#2d31fa"/>
    <path id="Trazado_105" data-name="Trazado 105" d="M110.32,6.86v7.4l-.76-.06c-.65-.06-1.08-.08-1.29-.08a4.6,4.6,0,0,0-3.55,1.33,5.9,5.9,0,0,0-1.27,4.17V30.81H96.02V7.19h7.16V8.97a8.139,8.139,0,0,1,1.93-1.23,10.963,10.963,0,0,1,4.53-.88h.68Z" fill="#2d31fa"/>
    <path id="Trazado_106" data-name="Trazado 106" d="M127.85,9.5c-1.85-1.76-4.51-2.64-7.91-2.64a17.8,17.8,0,0,0-5.09.73,13.372,13.372,0,0,0-4.3,2.1l-.23.17v.65l2.57,5.35.69-.59a8.012,8.012,0,0,1,2.5-1.38,9.338,9.338,0,0,1,3.04-.52,4.367,4.367,0,0,1,3.11.94,3.228,3.228,0,0,1,.94,2.04h-4.06c-3.19,0-5.61.65-7.19,1.93a6.64,6.64,0,0,0-2.44,5.42,6.98,6.98,0,0,0,4,6.49,10.1,10.1,0,0,0,4.46.94,8.18,8.18,0,0,0,5.64-1.8V30.8h7.05V17.42c0-3.49-.94-6.16-2.81-7.93Zm-3.93,13.59a4.159,4.159,0,0,1-1.7,2.25,4.976,4.976,0,0,1-2.74.76,3.993,3.993,0,0,1-2.5-.72,2.4,2.4,0,0,1-.91-1.97c0-1.74,1.24-2.6,3.72-2.6h4.13v2.28Z" fill="#2d31fa"/>
    <path id="Trazado_107" data-name="Trazado 107" d="M149.13,7.19V8.95a9.1,9.1,0,0,0-6.18-2.09,11.2,11.2,0,0,0-5.58,1.43,10.733,10.733,0,0,0-4.04,4.04,11.959,11.959,0,0,0-1.48,5.97,11.959,11.959,0,0,0,1.48,5.97,10.525,10.525,0,0,0,4.04,4.04,11.2,11.2,0,0,0,5.58,1.43,9.281,9.281,0,0,0,5.85-1.82,5.094,5.094,0,0,1-1.27,3.37,5.637,5.637,0,0,1-4.12,1.3,12.074,12.074,0,0,1-3.8-.64,9.137,9.137,0,0,1-3.09-1.71l-.67-.59-3.06,5.92.43.36a13.155,13.155,0,0,0,4.74,2.41,21.2,21.2,0,0,0,5.91.81c3.99,0,7.08-1.07,9.19-3.18s3.18-5.34,3.18-9.59V7.19h-7.11Zm-4.98,16.57a5.424,5.424,0,0,1-3.95-1.51,5.28,5.28,0,0,1-1.55-3.95,5.28,5.28,0,0,1,1.55-3.95,5.925,5.925,0,0,1,7.88,0,5.343,5.343,0,0,1,1.53,3.95,5.211,5.211,0,0,1-5.46,5.46" fill="#2d31fa"/>
    <path id="Trazado_108" data-name="Trazado 108" d="M179.19,12.66a10.668,10.668,0,0,0-4.16-4.31,12.352,12.352,0,0,0-11.89.07,11.139,11.139,0,0,0-4.25,4.36A12.689,12.689,0,0,0,157.35,19a12.576,12.576,0,0,0,1.56,6.25,11.07,11.07,0,0,0,4.45,4.34,13.614,13.614,0,0,0,6.56,1.55c3.96,0,7.03-1.29,9.12-3.85l.37-.45-4.09-4.74-.53.55a6.345,6.345,0,0,1-2.11,1.48,6.8,6.8,0,0,1-2.61.46,5.738,5.738,0,0,1-3.53-1.06,4.287,4.287,0,0,1-1.5-2.01H180.5l.05-.65c.1-1.51.11-1.71.11-1.78a13.431,13.431,0,0,0-1.49-6.42Zm-9.99-.23a4.847,4.847,0,0,1,3.4,1.27,5.391,5.391,0,0,1,1.7,3.37H164.06a5.367,5.367,0,0,1,1.7-3.39A4.971,4.971,0,0,1,169.2,12.43Z" fill="#2d31fa"/>
    <path id="Trazado_109" data-name="Trazado 109" d="M109.7,60.78h2.27a1.23,1.23,0,0,1,1.23,1.23v2.27a1.23,1.23,0,0,1-1.23,1.23H109.7a1.23,1.23,0,0,1-1.23-1.23V62.01a1.23,1.23,0,0,1,1.23-1.23" fill="#ff0075"/>
    <path id="Trazado_110" data-name="Trazado 110" d="M55.64,42.38a8.617,8.617,0,0,1,4.35-1.09,8.487,8.487,0,0,1,6.63,3.1l.56.63,5.28-5.21L72,39.24a14.157,14.157,0,0,0-5.33-4.07,17.287,17.287,0,0,0-7-1.39,16.651,16.651,0,0,0-8.31,2.09,15.088,15.088,0,0,0-5.8,5.82,17.84,17.84,0,0,0,0,16.72,15.1,15.1,0,0,0,5.76,5.81,16.35,16.35,0,0,0,8.23,2.09,20.085,20.085,0,0,0,6.28-1.02,17.388,17.388,0,0,0,5.53-2.96l.3-.24V48.77H64.13v9.08a9.235,9.235,0,0,1-4.23.96,8.418,8.418,0,0,1-4.28-1.1,7.739,7.739,0,0,1-2.92-3.08,9.612,9.612,0,0,1-1.06-4.58,9.894,9.894,0,0,1,1.06-4.62,7.492,7.492,0,0,1,2.93-3.05Z" fill="#ff0075"/>
    <path id="Trazado_111" data-name="Trazado 111" d="M102.81,41.73a15.454,15.454,0,0,0-5.77-5.83,17.128,17.128,0,0,0-16.49-.01,15.337,15.337,0,0,0-5.78,5.83,17.68,17.68,0,0,0,0,16.64,15.2,15.2,0,0,0,5.78,5.83,17.128,17.128,0,0,0,16.49-.01,15.383,15.383,0,0,0,5.77-5.83,17.531,17.531,0,0,0,0-16.64Zm-6.06,8.32a9.726,9.726,0,0,1-1.05,4.58,7.759,7.759,0,0,1-2.84,3.08A7.743,7.743,0,0,1,81.9,54.63a10.514,10.514,0,0,1,0-9.16,7.759,7.759,0,0,1,2.84-3.08A7.743,7.743,0,0,1,95.7,45.47a9.726,9.726,0,0,1,1.05,4.58" fill="#ff0075"/>
  </g>
</svg>
