<svg xmlns="http://www.w3.org/2000/svg" width="21.382" height="21.378" viewBox="0 0 21.382 21.378">
  <path id="Icon_awesome-instagram" data-name="Icon awesome-instagram" d="M10.688,7.446a5.481,5.481,0,1,0,5.481,5.481A5.472,5.472,0,0,0,10.688,7.446Zm0,9.044a3.563,3.563,0,1,1,3.563-3.563,3.57,3.57,0,0,1-3.563,3.563Zm6.984-9.268a1.278,1.278,0,1,1-1.278-1.278A1.275,1.275,0,0,1,17.672,7.221Zm3.63,1.3A6.327,6.327,0,0,0,19.575,4.04,6.368,6.368,0,0,0,15.1,2.313c-1.765-.1-7.055-.1-8.82,0A6.359,6.359,0,0,0,1.8,4.035,6.347,6.347,0,0,0,.07,8.514c-.1,1.765-.1,7.055,0,8.82A6.327,6.327,0,0,0,1.8,21.813,6.376,6.376,0,0,0,6.276,23.54c1.765.1,7.055.1,8.82,0a6.327,6.327,0,0,0,4.479-1.727A6.368,6.368,0,0,0,21.3,17.334c.1-1.765.1-7.05,0-8.815Zm-2.28,10.709A3.608,3.608,0,0,1,16.99,21.26c-1.407.558-4.746.429-6.3.429s-4.9.124-6.3-.429a3.608,3.608,0,0,1-2.032-2.032c-.558-1.407-.429-4.746-.429-6.3s-.124-4.9.429-6.3A3.608,3.608,0,0,1,4.387,4.593c1.407-.558,4.746-.429,6.3-.429s4.9-.124,6.3.429a3.608,3.608,0,0,1,2.032,2.032c.558,1.407.429,4.746.429,6.3S19.58,17.826,19.022,19.228Z" transform="translate(0.005 -2.238)" fill="#5463ff"/>
</svg>
