<svg xmlns="http://www.w3.org/2000/svg" xmlns:xlink="http://www.w3.org/1999/xlink" width="538" height="50.961" viewBox="0 0 538 50.961">
  <defs>
    <clipPath id="clip-path">
      <rect id="Rect치ngulo_199" data-name="Rect치ngulo 199" width="538" height="50.961" fill="none"/>
    </clipPath>
  </defs>
  <g id="Grupo_344" data-name="Grupo 344" clip-path="url(#clip-path)">
    <path id="Trazado_489" data-name="Trazado 489" d="M32.974,45H26.8l3.854-23.8h6.179ZM21.534,21.2,15.6,37.6l-.673-3.548-2.08-10.706S12.6,21.2,9.91,21.2H.122L0,21.633a23.1,23.1,0,0,1,6.485,2.692L11.868,45h6.485L28.2,21.2H21.534M70.291,45H75.98L71.025,21.2H66.009a2.843,2.843,0,0,0-2.875,1.774L53.9,45h6.485l1.285-3.548h7.892ZM63.5,36.56l3.242-8.932,1.835,8.932Zm-9.054-9.666.856-5.139a18.039,18.039,0,0,0-5.567-1.04c-2.814,0-10.4,1.346-10.4,7.892s8.565,6.24,8.565,9.482-7.708,2.631-10.216.612l-.918,5.322a17.218,17.218,0,0,0,6.974,1.346c4.221,0,10.583-2.2,10.583-8.136s-8.687-6.791-8.687-9.482,6.056-2.325,8.687-.856Z" transform="translate(0 -8.043)" fill="#fff"/>
    <path id="Trazado_490" data-name="Trazado 490" d="M14.927,34.245l-2.08-10.706S12.6,21.4,9.91,21.4H.122L0,21.826a23.664,23.664,0,0,1,9.176,4.649,18.67,18.67,0,0,1,5.689,7.831Z" transform="translate(0 -8.308)" fill="#e6a540"/>
    <rect id="Rect치ngulo_198" data-name="Rect치ngulo 198" width="13.336" height="24.103" transform="translate(119.374 12.948)" fill="#ff5f00"/>
    <path id="Trazado_491" data-name="Trazado 491" d="M184.575,31.12a15.318,15.318,0,0,1,5.812-12.052,15.2,15.2,0,0,0-24.654,11.99c0,8.442,6.86,15.72,15.233,15.355,5.694-.248,6.852-1.224,9.421-3.3a15.318,15.318,0,0,1-5.812-12.052" transform="translate(-64.344 -6.121)" fill="#eb001b" fill-rule="evenodd"/>
    <path id="Trazado_492" data-name="Trazado 492" d="M231.054,41.031v-.979h-.245l-.306.673-.306-.673h-.245v.979h.184V40.3l.245.612h.184l.245-.612v.734h.245Zm-1.591,0v-.8h.306v-.184h-.856v.184h.306v.8h.245Zm1.224-9.91a15.425,15.425,0,0,1-15.233,15.355c-5.211.081-6.852-1.224-9.421-3.3a15.4,15.4,0,0,0,0-24.1A15.2,15.2,0,0,1,230.687,31.12Z" transform="translate(-79.991 -6.121)" fill="#f79e1b" fill-rule="evenodd"/>
    <path id="Trazado_493" data-name="Trazado 493" d="M793.1,31.066h2.08v-2.08H793.1Zm-4.16-8.32h2.08v-2.08h-2.08Zm0,4.16h2.08v-2.08h-2.08Zm8.32-4.16h2.08v-2.08h-2.08Zm-4.16,4.16h2.08v-2.08H793.1Zm-4.16,4.16h2.08v-2.08h-2.08Zm4.16-8.32h2.08v-2.08H793.1Zm4.16,4.16h2.08v-2.08h-2.08Zm0,4.16h2.08v-2.08h-2.08Zm-95.373,4.1c.306-3.12,1.835-4.833,4.711-4.833s4.466,1.774,4.466,4.833Zm4.955-8.2c-6.485,0-9.054,4.343-9.054,9.849s3.3,10.094,10.094,10.094,4.16-.306,6-1.162c.245-1.224.489-2.631.612-3.671A15.86,15.86,0,0,1,708,43.484c-3.609,0-5.567-1.591-6.056-4.894h12.969a26.782,26.782,0,0,0,.245-3.12c0-4.649-2.508-8.442-8.32-8.442Zm21.84,4.1a29.082,29.082,0,0,0,.367-3.487h-6.423V20.6a13.6,13.6,0,0,0-4.1.612V40.609c0,4.527,2.508,6.3,6.485,6.3s2.325-.122,3.426-.612a32.958,32.958,0,0,0,.489-3.426,10.17,10.17,0,0,1-3.181.551c-1.958,0-3.12-.918-3.12-3.3V31.066Zm53.651,0a29.082,29.082,0,0,0,.367-3.487h-6.423V20.6a13.6,13.6,0,0,0-4.1.612V40.609c0,4.527,2.508,6.3,6.485,6.3s2.325-.122,3.426-.612a32.974,32.974,0,0,0,.489-3.426,10.17,10.17,0,0,1-3.181.551c-1.958,0-3.12-.918-3.12-3.3V31.066Zm-26.734,4.1c.306-3.12,1.835-4.833,4.711-4.833s4.466,1.774,4.466,4.833Zm4.955-8.2c-6.485,0-9.054,4.343-9.054,9.849s3.3,10.094,10.094,10.094,4.16-.306,6-1.162c.245-1.224.489-2.631.612-3.671a15.862,15.862,0,0,1-6.485,1.407c-3.609,0-5.567-1.591-6.056-4.894h12.969a26.782,26.782,0,0,0,.245-3.12c0-4.649-2.508-8.442-8.32-8.442ZM690.017,43a16.308,16.308,0,0,1-3.426.367c-5.628,0-9.176-3.242-9.176-9.849s3.3-9.482,9.36-9.482,4.649.428,6.424,1.04a15.514,15.514,0,0,0,.734-3.732,21.984,21.984,0,0,0-7.158-.979c-8.626,0-13.642,4.833-13.642,13.336s4.527,13.4,13.153,13.4,5.751-.489,7.831-1.346V32.6h-4.16V43.056Zm49.369-16.028a35.7,35.7,0,0,0-7.4,1.04V46.482h4.1V30.7a20.66,20.66,0,0,1,3.242-.306c4.1,0,5.016,1.407,5.016,4.343V46.482h4.1V34.063c0-4.466-2.2-7.1-8.993-7.1Z" transform="translate(-261.338 -7.905)" fill="#fff"/>
    <path id="Trazado_494" data-name="Trazado 494" d="M497.2,29.52h4.2l.947-2.188h2.12l.944,2.188h8.262V27.848l.738,1.68H518.7l.738-1.7v1.7h20.533l-.009-3.592h.4c.278.009.359.034.359.474v3.118h10.62v-.836a8.725,8.725,0,0,0,3.942.836h4.468l.956-2.188h2.12l.935,2.188h8.609V27.442l1.3,2.079h6.9V15.78h-6.828V17.4l-.956-1.623h-7.007V17.4L564.9,15.78h-9.463a8.818,8.818,0,0,0-4.1.8v-.8h-6.531v.8a4.169,4.169,0,0,0-2.776-.8h-23.86l-1.6,3.549-1.644-3.549h-7.515V17.4l-.826-1.623h-6.409L497.2,22.313V29.52Zm26.507-1.981h-2.52l-.009-7.715-3.563,7.715h-2.158l-3.573-7.723v7.723h-5l-.945-2.2h-5.117l-.954,2.2H497.2l4.4-9.852h3.652l4.18,9.327V17.687h4.011l3.217,6.683,2.955-6.683h4.092ZM505.1,23.3l-1.682-3.927L501.744,23.3Zm28.633,4.242h-8.21V17.687h8.21v2.051H527.98v1.776h5.614v2.019H527.98V25.5h5.752Zm11.57-7.2a2.777,2.777,0,0,1-1.731,2.626,2.844,2.844,0,0,1,1.216.83,2.734,2.734,0,0,1,.407,1.807v1.936h-2.479L542.7,26.3a2.852,2.852,0,0,0-.388-1.919,2.48,2.48,0,0,0-1.792-.422h-2.638v3.584h-2.458V17.687h5.653a6.012,6.012,0,0,1,2.976.472A2.281,2.281,0,0,1,545.3,20.34ZM542.2,21.8a2.366,2.366,0,0,1-1.216.2h-2.986V19.818h3.026a2.617,2.617,0,0,1,1.166.178.9.9,0,0,1,.516.871,1,1,0,0,1-.507.937m7.049,5.736h-2.508V17.687h2.508Zm29.111,0h-3.483l-4.659-7.394v7.394h-5.005l-.956-2.2h-5.106l-.927,2.2h-2.877a5.316,5.316,0,0,1-3.564-1.09,4.833,4.833,0,0,1-1.313-3.76,5.1,5.1,0,0,1,1.325-3.852,5.128,5.128,0,0,1,3.732-1.149h2.38V19.8h-2.33a2.434,2.434,0,0,0-1.892.583,3.167,3.167,0,0,0-.706,2.232,3.316,3.316,0,0,0,.675,2.314,2.441,2.441,0,0,0,1.713.508h1.1l3.464-7.747h3.683l4.161,9.318V17.687h3.742l4.32,6.861V17.687h2.517ZM563.416,23.3l-1.7-3.927L560.024,23.3Zm21.2,19.973a3.911,3.911,0,0,1-3.335,1.26h-4.746V42.417h4.727a1.441,1.441,0,0,0,.995-.244.852.852,0,0,0,.291-.642.794.794,0,0,0-.3-.652,1.288,1.288,0,0,0-.866-.219c-2.308-.075-5.187.069-5.187-3.05,0-1.429.947-2.934,3.526-2.934h4.9v-1.96h-4.548a5.292,5.292,0,0,0-3.076.8v-.8h-6.727a4.807,4.807,0,0,0-2.936.8v-.8H555.315v.8a6.619,6.619,0,0,0-3.314-.8h-7.924v.8c-.757-.7-2.438-.8-3.464-.8h-8.869l-2.03,2.1-1.9-2.1H514.564V46.465h13l2.092-2.138,1.97,2.138,8.013.007V43.238h.787a8.691,8.691,0,0,0,3.423-.484v3.711h6.609V42.881h.319c.407,0,.447.016.447.406v3.177H571.3a5.913,5.913,0,0,0,3.345-.88v.88h6.368a8.86,8.86,0,0,0,3.6-.634V43.269Zm-39.808-5.289c0,2.737-2.132,3.3-4.28,3.3h-3.067v3.305h-4.776l-3.026-3.263-3.145,3.263h-9.735V34.734h9.885l3.024,3.23,3.126-3.23h7.853c1.95,0,4.142.518,4.142,3.247m-19.54,4.535h-6.042V40.555h5.4v-2.01h-5.4V36.753h6.162l2.688,2.872Zm9.737,1.128-3.774-4.014,3.774-3.887Zm5.581-4.381H537.41V36.753h3.2c.888,0,1.5.346,1.5,1.208s-.588,1.3-1.532,1.3m16.639-4.528h8.2v2.038h-5.755v1.792h5.615v2.01h-5.615v1.961l5.755.009v2.045h-8.2Zm-3.154,5.275a2.67,2.67,0,0,1,1.2.827,2.776,2.776,0,0,1,.407,1.8v1.954h-2.467V43.355c0-.593.059-1.47-.4-1.929a2.462,2.462,0,0,0-1.8-.437h-2.627v3.6h-2.47V34.734h5.675a6.33,6.33,0,0,1,2.957.465,2.293,2.293,0,0,1,1.263,2.188A2.764,2.764,0,0,1,554.072,40.009Zm-1.389-1.246a2.437,2.437,0,0,1-1.213.2h-2.986V36.753h3.026a2.518,2.518,0,0,1,1.173.178.931.931,0,0,1,.509.886A1.051,1.051,0,0,1,552.683,38.763Zm22.187.628a2.672,2.672,0,0,1,.735,2.087c0,2.12-1.382,3.11-3.861,3.11h-4.787V42.475h4.767a1.487,1.487,0,0,0,1-.244.856.856,0,0,0,.29-.642.829.829,0,0,0-.3-.652,1.331,1.331,0,0,0-.875-.219c-2.3-.075-5.177.069-5.177-3.05,0-1.429.937-2.934,3.514-2.934h4.927v2.1H570.6a1.721,1.721,0,0,0-.984.178.745.745,0,0,0-.369.708.757.757,0,0,0,.538.734,2.943,2.943,0,0,0,.956.112l1.323.034A4.078,4.078,0,0,1,574.869,39.391Zm9.753-2.638h-4.479a1.763,1.763,0,0,0-.995.178.758.758,0,0,0-.359.709.747.747,0,0,0,.538.734,2.923,2.923,0,0,0,.947.111l1.332.034a4,4,0,0,1,2.788.793,1.262,1.262,0,0,1,.228.243Z" transform="translate(-193.033 -6.127)" fill="#fff"/>
    <path id="Trazado_495" data-name="Trazado 495" d="M332.98,51.872c0-1.4-.73-1.3-1.427-1.319v-.4c.6.029,1.225.029,1.832.029.651,0,1.536-.029,2.686-.029,4.021,0,6.211,2.685,6.211,5.434,0,1.539-.9,5.4-6.4,5.4-.791,0-1.521-.031-2.251-.031-.7,0-1.383.015-2.08.031v-.4c.93-.094,1.382-.124,1.427-1.18Zm1.521,7.282c0,1.2.855,1.335,1.615,1.335,3.355,0,4.455-2.53,4.455-4.843a4.665,4.665,0,0,0-4.859-5c-.638,0-.932.045-1.212.062Z" transform="translate(-128.723 -19.47)" fill="#fff" fill-rule="evenodd"/>
    <path id="Trazado_496" data-name="Trazado 496" d="M349.98,60.474h.294c.434,0,.745,0,.745-.514V55.754c0-.682-.232-.776-.807-1.086V54.42c.73-.22,1.6-.512,1.662-.559a.545.545,0,0,1,.28-.079c.076,0,.108.094.108.219v5.96c0,.514.342.514.778.514h.263v.4c-.528,0-1.072-.031-1.63-.031s-1.118.014-1.692.031Zm1.661-9.083a.761.761,0,0,1,0-1.523.76.76,0,0,1,.761.746.775.775,0,0,1-.761.776" transform="translate(-135.877 -19.361)" fill="#fff" fill-rule="evenodd"/>
    <path id="Trazado_497" data-name="Trazado 497" d="M357.171,58.33c0-.573-.171-.729-.9-1.024v-.295a20.987,20.987,0,0,0,2.049-.746c.047,0,.092.031.092.155V57.43a4.556,4.556,0,0,1,2.689-1.165c1.318,0,1.783.963,1.783,2.174v4c0,.514.343.514.777.514h.28v.4c-.545,0-1.088-.031-1.646-.031s-1.119.014-1.677.031v-.4h.28c.434,0,.744,0,.744-.514V58.425c0-.886-.541-1.32-1.427-1.32a4.131,4.131,0,0,0-1.8.746v4.594c0,.514.343.514.778.514h.279v.4c-.543,0-1.086-.031-1.647-.031s-1.117.014-1.676.031v-.4h.28c.434,0,.745,0,.745-.514Z" transform="translate(-138.271 -21.845)" fill="#fff" fill-rule="evenodd"/>
    <path id="Trazado_498" data-name="Trazado 498" d="M370.029,59.077a3.815,3.815,0,0,0,0,.9,2.593,2.593,0,0,0,2.281,2.685,2.977,2.977,0,0,0,2.1-1.039l.217.217a3.641,3.641,0,0,1-2.871,1.755c-2.47,0-2.966-2.393-2.966-3.385,0-3.044,2.049-3.945,3.135-3.945a2.466,2.466,0,0,1,2.625,2.438,1.87,1.87,0,0,1-.014.28l-.141.094Zm2.749-.5c.387,0,.432-.2.432-.389a1.316,1.316,0,0,0-1.351-1.427c-.946,0-1.6.7-1.785,1.816Z" transform="translate(-143.178 -21.845)" fill="#fff" fill-rule="evenodd"/>
    <path id="Trazado_499" data-name="Trazado 499" d="M378.786,62.957h.42c.433,0,.744,0,.744-.514V58.082c0-.48-.574-.575-.807-.7V57.15c1.134-.482,1.755-.886,1.9-.886.091,0,.137.047.137.2v1.4h.033c.387-.605,1.04-1.6,1.986-1.6a.847.847,0,0,1,.885.824.754.754,0,0,1-.728.793c-.483,0-.483-.375-1.027-.375a1.313,1.313,0,0,0-1.133,1.29v3.647c0,.514.31.514.745.514h.869v.4c-.854-.017-1.5-.031-2.172-.031-.636,0-1.289.015-1.848.031Z" transform="translate(-147.06 -21.844)" fill="#fff" fill-rule="evenodd"/>
    <path id="Trazado_500" data-name="Trazado 500" d="M388.379,61.2a2.047,2.047,0,0,0,1.958,1.9,1.1,1.1,0,0,0,1.256-1.1c0-1.833-3.384-1.242-3.384-3.743a2.135,2.135,0,0,1,2.407-1.988,4.082,4.082,0,0,1,1.768.453l.109,1.582h-.357a1.594,1.594,0,0,0-1.693-1.536,1.09,1.09,0,0,0-1.21,1.024c0,1.818,3.6,1.258,3.6,3.7,0,1.024-.822,2.112-2.67,2.112a4.076,4.076,0,0,1-1.893-.529L388.1,61.28Z" transform="translate(-150.676 -21.844)" fill="#fff" fill-rule="evenodd"/>
    <path id="Trazado_501" data-name="Trazado 501" d="M412.6,52.811h-.387c-.3-1.814-1.584-2.546-3.322-2.546-1.788,0-4.38,1.195-4.38,4.921,0,3.137,2.237,5.389,4.627,5.389a3.159,3.159,0,0,0,3.122-2.687l.357.093-.357,2.267a8.711,8.711,0,0,1-3.433.824,5.526,5.526,0,0,1-5.929-5.838,5.708,5.708,0,0,1,5.884-5.467,11.2,11.2,0,0,1,3.664.825Z" transform="translate(-156.421 -19.322)" fill="#fff" fill-rule="evenodd"/>
    <path id="Trazado_502" data-name="Trazado 502" d="M419.672,59.932h.294c.436,0,.746,0,.746-.514V50.773c0-1.01-.232-1.041-.823-1.212v-.25a9.761,9.761,0,0,0,1.6-.667,1.693,1.693,0,0,1,.34-.172c.095,0,.126.1.126.22V59.418c0,.514.342.514.776.514h.263v.4c-.526,0-1.07-.031-1.629-.031s-1.117.015-1.692.031Z" transform="translate(-162.934 -18.819)" fill="#fff" fill-rule="evenodd"/>
    <path id="Trazado_503" data-name="Trazado 503" d="M431.75,62.654c0,.281.171.295.434.295.187,0,.419-.014.623-.014v.327a15.655,15.655,0,0,0-2.238.481l-.077-.048V62.438a4.19,4.19,0,0,1-2.749,1.3,1.675,1.675,0,0,1-1.707-1.847V57.92c0-.4-.062-.793-.93-.869v-.3c.559-.015,1.8-.108,2-.108.173,0,.173.108.173.45V61.1c0,.466,0,1.8,1.351,1.8a3.47,3.47,0,0,0,1.878-.946V57.78c0-.311-.746-.481-1.3-.636v-.28c1.4-.094,2.265-.218,2.421-.218.125,0,.125.108.125.28Z" transform="translate(-165.043 -21.993)" fill="#fff" fill-rule="evenodd"/>
    <path id="Trazado_504" data-name="Trazado 504" d="M439.705,54.358a3.931,3.931,0,0,1,2.313-1.118,3.024,3.024,0,0,1,2.889,3.262,3.922,3.922,0,0,1-3.713,4.068,4.576,4.576,0,0,1-2.158-.544l-.464.357-.325-.17a18.2,18.2,0,0,0,.217-2.764V50.773c0-1.011-.234-1.041-.824-1.213v-.248a9.85,9.85,0,0,0,1.6-.668,1.669,1.669,0,0,1,.343-.171c.092,0,.124.095.124.219Zm0,4.224a1.671,1.671,0,0,0,1.6,1.584c1.661,0,2.36-1.631,2.36-3.013,0-1.677-1.272-3.073-2.483-3.073a2.39,2.39,0,0,0-1.476.73Z" transform="translate(-169.91 -18.819)" fill="#fff" fill-rule="evenodd"/>
    <path id="Trazado_505" data-name="Trazado 505" d="M341.744,77.629l.017-.017V74.446a.7.7,0,0,0-.736-.8h-.186V73.4c.4,0,.787.034,1.183.034.346,0,.694-.034,1.039-.034v.253h-.126c-.356,0-.753.068-.753,1.073v3.844a5.6,5.6,0,0,0,.05.853h-.321l-4.35-4.85v3.482c0,.735.143.988.793.988h.144v.254c-.363,0-.726-.033-1.09-.033-.379,0-.768.033-1.149.033V79.04h.119c.583,0,.76-.4.76-1.071V74.41a.759.759,0,0,0-.769-.76h-.11V73.4c.321,0,.65.034.971.034.254,0,.5-.034.752-.034Z" transform="translate(-130.55 -28.496)" fill="#fff" fill-rule="evenodd"/>
    <path id="Trazado_506" data-name="Trazado 506" d="M342.209,79.433l-.348-.012-4.287-4.778v3.386c.01.735.122.944.758.952h.181v.326h-.038c-.365,0-.729-.034-1.089-.034-.379,0-.767.034-1.149.034H336.2V78.98h.156c.559,0,.718-.362.724-1.035V74.387a.724.724,0,0,0-.732-.724H336.2v-.327h.037c.323,0,.653.033.971.033.251,0,.5-.033.781-.02l3.713,4.179V74.421c0-.671-.453-.752-.7-.758h-.223v-.327h.037c.4,0,.788.033,1.183.033.344,0,.69-.033,1.039-.033h.037v.327h-.163c-.349.009-.707.04-.716,1.036v3.844a5.64,5.64,0,0,0,.05.847l.008.042Zm-.321-.074h.28a5.659,5.659,0,0,1-.045-.815V74.7c0-1.014.425-1.11.789-1.11H343v-.18c-.333,0-.667.033-1,.033-.387,0-.763-.031-1.145-.033v.18H341a.739.739,0,0,1,.772.832l-.012,3.193-.017.017-.029.028-3.757-4.249c-.251,0-.495.033-.752.033-.31,0-.627-.031-.934-.033v.18h.075a.8.8,0,0,1,.8.8v3.558c0,.676-.188,1.108-.8,1.11l-.081,0v.181c.366,0,.743-.034,1.112-.034.352,0,.7.031,1.053.034v-.179h-.107c-.665,0-.83-.292-.83-1.027V74.452Zm-.168-1.754.026-.024Zm-.02-.017v0l-.007-.006Z" transform="translate(-130.526 -28.472)" fill="#fff" fill-rule="evenodd"/>
    <path id="Trazado_507" data-name="Trazado 507" d="M348.787,73.653c-.634,0-.659.153-.786.769h-.254c.034-.237.075-.473.1-.718a5.066,5.066,0,0,0,.051-.718h.2c.068.254.279.245.508.245h4.358c.229,0,.44-.009.457-.262l.2.035c-.032.228-.067.456-.092.684s-.016.456-.016.684l-.254.094c-.017-.312-.059-.812-.625-.812h-1.386v4.495c0,.652.3.726.7.726h.161v.254c-.33,0-.921-.032-1.376-.032-.508,0-1.1.032-1.429.032v-.254h.161c.466,0,.7-.042.7-.708V73.653Z" transform="translate(-135.01 -28.329)" fill="#fff" fill-rule="evenodd"/>
    <path id="Trazado_508" data-name="Trazado 508" d="M352.091,79.136c-.333,0-.924-.034-1.378-.034-.507,0-1.1.034-1.429.034h-.036v-.327h.2c.466-.01.653-.017.663-.672V73.661h-1.348v-.074h1.421v4.55c0,.678-.273.746-.737.747h-.125v.179c.333,0,.9-.033,1.393-.033.44,0,1,.031,1.339.033v-.179h-.123c-.409,0-.738-.1-.738-.765V73.587h1.422c.567,0,.642.484.659.8l.184-.067c0-.221,0-.442.015-.664s.056-.433.087-.65l-.128-.021c-.04.246-.278.259-.489.256h-4.4c-.2,0-.416-.01-.492-.245h-.139a5.061,5.061,0,0,1-.049.685c-.025.232-.064.455-.095.679h.18c.111-.589.183-.779.815-.771v.074c-.626.012-.612.117-.75.741l-.006.029h-.325l0-.044c.035-.236.078-.473.1-.718a4.717,4.717,0,0,0,.051-.711v-.037h.269l.007.026c.056.213.213.215.429.218h4.4c.236,0,.407-.007.421-.228l0-.04.039.008.239.037-.006.038c-.034.226-.066.454-.092.68s-.016.453-.016.681v.026l-.024.01-.3.11,0-.049c-.023-.318-.056-.778-.59-.778h-1.349V78.12c.009.637.261.681.664.689h.2v.327Z" transform="translate(-134.984 -28.302)" fill="#fff" fill-rule="evenodd"/>
    <path id="Trazado_509" data-name="Trazado 509" d="M357.8,79.04h.119c.3,0,.625-.042.625-.481V74.133c0-.44-.322-.483-.625-.483H357.8V73.4c.514,0,1.394.033,2.1.033s1.588-.033,2.163-.033c-.015.363-.007.922.018,1.293l-.255.067c-.04-.549-.142-.987-1.03-.987h-1.173v2.212h1c.507,0,.617-.286.667-.743h.253q-.026.5-.026.989t.026.963l-.253.051c-.05-.507-.075-.836-.659-.836h-1.012v1.967c0,.55.488.55,1.029.55,1.014,0,1.461-.069,1.715-1.03l.236.058c-.11.449-.21.895-.286,1.343-.541,0-1.513-.032-2.271-.032s-1.767.032-2.249.032Z" transform="translate(-138.913 -28.496)" fill="#fff" fill-rule="evenodd"/>
    <path id="Trazado_510" data-name="Trazado 510" d="M362.3,79.306c-.542,0-1.514-.035-2.272-.035s-1.765.035-2.248.035h-.035V78.98h.155c.305-.006.584-.032.587-.445V74.109c0-.413-.282-.44-.587-.446h-.155v-.327h.035c.516,0,1.395.033,2.1.033s1.588-.033,2.163-.033h.037v.039c-.006.127-.009.277-.009.436,0,.292.009.612.026.853v.03l-.028.009-.3.078v-.043c-.05-.548-.123-.947-.993-.956h-1.139v2.14h.97c.487,0,.574-.254.632-.71l0-.034h.325v.039c-.017.33-.026.658-.026.987s.01.641.026.962V77.2l-.031.007-.294.059,0-.04c-.059-.516-.062-.8-.623-.8h-.978v1.932c0,.513.444.51.995.513,1.017-.006,1.425-.056,1.679-1l.009-.034.035.006.271.07-.008.035c-.109.447-.21.894-.287,1.341l-.006.03Zm-.031-.073c.074-.427.17-.854.273-1.279l-.166-.042c-.253.945-.743,1.029-1.74,1.023-.532,0-1.064,0-1.068-.587v-2h1.05c.59-.006.65.349.692.83l.182-.037c-.017-.312-.025-.625-.025-.934s.008-.634.025-.952h-.182c-.048.441-.185.749-.7.744h-1.042V73.708h1.212c.878-.007,1.024.448,1.062.979l.182-.049c-.015-.239-.025-.545-.025-.827,0-.144,0-.282.009-.4-.574,0-1.431.033-2.126.033s-1.548-.031-2.065-.033v.18h.082c.3,0,.659.053.662.52v4.425c0,.467-.362.518-.662.52h-.082v.179c.492,0,1.468-.033,2.21-.033s1.7.031,2.241.033" transform="translate(-138.89 -28.472)" fill="#fff" fill-rule="evenodd"/>
    <path id="Trazado_511" data-name="Trazado 511" d="M367.045,74.292c0-.616-.339-.642-.6-.642h-.152V73.4c.27,0,.794.034,1.31.034s.912-.034,1.36-.034c1.063,0,2.011.287,2.011,1.487a1.6,1.6,0,0,1-1.174,1.487l1.444,2.162a.939.939,0,0,0,.82.507v.254c-.28,0-.549-.033-.828-.033-.262,0-.533.033-.794.033a23.439,23.439,0,0,1-1.758-2.738h-.557v1.809c0,.65.3.675.691.675h.153v.254c-.482,0-.97-.033-1.453-.033-.406,0-.8.033-1.225.033V79.04h.152c.313,0,.6-.143.6-.455Zm1.081,1.959h.413c.845,0,1.3-.32,1.3-1.318a1.154,1.154,0,0,0-1.235-1.233,4.2,4.2,0,0,0-.48.034Z" transform="translate(-142.21 -28.496)" fill="#fff" fill-rule="evenodd"/>
    <path id="Trazado_512" data-name="Trazado 512" d="M372.039,79.306c-.284,0-.552-.034-.83-.034-.258,0-.527.034-.822.02a23.6,23.6,0,0,1-1.75-2.722h-.5V78.34c.01.636.264.631.655.64h.19v.327h-.037c-.483,0-.974-.034-1.452-.034-.4,0-.8.034-1.225.034h-.037v-.327h.189c.3,0,.561-.135.562-.418V74.268c-.007-.6-.3-.6-.562-.6h-.189v-.327h.037c.273,0,.795.033,1.31.033s.91-.033,1.36-.033c1.065,0,2.046.3,2.048,1.523a1.618,1.618,0,0,1-1.156,1.5l1.419,2.125a.906.906,0,0,0,.794.491l.031,0v.322ZM368.1,76.5h.577l.01.018a26.192,26.192,0,0,0,1.728,2.72c.257,0,.529-.034.792-.034s.53.03.793.034v-.185a.966.966,0,0,1-.812-.518l-1.471-2.2.042-.017a1.556,1.556,0,0,0,1.152-1.455c0-1.172-.912-1.444-1.974-1.449-.445,0-.851.034-1.36.034s-1-.032-1.274-.034v.18h.116c.262,0,.636.044.636.678v4.293c0,.339-.317.493-.636.494H366.3v.179c.406,0,.792-.034,1.189-.034.472,0,.949.032,1.416.034v-.179h-.116c-.385,0-.728-.048-.728-.715V76.5Zm0-.232h-.037V73.677l.032,0a4.086,4.086,0,0,1,.485-.032,1.193,1.193,0,0,1,1.271,1.27c0,1.009-.486,1.351-1.338,1.352Zm.413-.072c.836-.008,1.258-.3,1.266-1.28a1.119,1.119,0,0,0-1.2-1.2,3.237,3.237,0,0,0-.444.032v2.447Z" transform="translate(-142.186 -28.472)" fill="#fff" fill-rule="evenodd"/>
    <path id="Trazado_513" data-name="Trazado 513" d="M381.62,77.629l.015-.017V74.446a.7.7,0,0,0-.734-.8h-.185V73.4c.4,0,.785.034,1.183.034.347,0,.691-.034,1.04-.034v.253h-.127c-.355,0-.752.068-.752,1.073v3.844a5.6,5.6,0,0,0,.05.853h-.32l-4.35-4.85v3.482c0,.735.143.988.793.988h.144v.254c-.363,0-.727-.033-1.09-.033-.382,0-.77.033-1.149.033V79.04h.117c.584,0,.762-.4.762-1.071V74.41a.758.758,0,0,0-.769-.76h-.11V73.4c.32,0,.652.034.972.034.251,0,.5-.034.751-.034Z" transform="translate(-146.032 -28.496)" fill="#fff" fill-rule="evenodd"/>
    <path id="Trazado_514" data-name="Trazado 514" d="M382.086,79.433l-.347-.012-4.288-4.778v3.385c.01.736.121.944.758.952h.179v.326h-.037c-.365,0-.727-.035-1.09-.035-.377,0-.768.035-1.148.035h-.037V78.98h.155c.558,0,.718-.362.724-1.037V74.386a.721.721,0,0,0-.732-.722h-.147v-.327h.037c.322,0,.653.033.971.033.249,0,.493-.033.776-.022l3.714,4.181V74.421c0-.671-.452-.754-.7-.758h-.223v-.327h.037c.4,0,.789.033,1.184.033.344,0,.691-.033,1.039-.033h.037v.327h-.163c-.349.009-.707.04-.716,1.036v3.844a5.217,5.217,0,0,0,.051.848l0,.042Zm-.321-.074h.277a5.829,5.829,0,0,1-.043-.815V74.7c0-1.014.428-1.108.789-1.11h.089v-.18c-.333,0-.667.033-1,.033-.388,0-.765-.031-1.147-.033v.18h.149a.74.74,0,0,1,.772.832l-.012,3.193-.016.017-.026.028-3.759-4.249c-.251,0-.5.033-.752.033-.313,0-.629-.031-.936-.033v.18h.074a.8.8,0,0,1,.8.8v3.557c0,.678-.19,1.11-.8,1.112h-.082v.179c.365,0,.742-.033,1.112-.033.354,0,.706.031,1.055.033v-.179h-.108c-.664,0-.83-.291-.832-1.027V74.454ZM381.6,77.6l.028-.024Zm-.02-.017v0l-.006-.007Z" transform="translate(-146.008 -28.472)" fill="#fff" fill-rule="evenodd"/>
    <path id="Trazado_515" data-name="Trazado 515" d="M388.59,77.952a3.421,3.421,0,0,0-.187.658c0,.254.356.3.634.3h.094v.253c-.339-.018-.684-.032-1.024-.032-.3,0-.606.015-.912.032v-.253h.051a.766.766,0,0,0,.734-.55l1.352-3.876a7.138,7.138,0,0,0,.314-1.049,4.281,4.281,0,0,0,.768-.363.2.2,0,0,1,.067-.017.058.058,0,0,1,.06.026c.025.067.05.143.076.21l1.555,4.419c.1.294.2.607.31.862a.54.54,0,0,0,.56.337h.051v.253c-.381-.018-.762-.032-1.165-.032s-.838.015-1.269.032v-.253h.093c.193,0,.525-.034.525-.245a2.723,2.723,0,0,0-.171-.609l-.329-.979H388.86Zm1.233-3.743h-.018l-.785,2.391H390.6Z" transform="translate(-150.325 -28.362)" fill="#fff" fill-rule="evenodd"/>
    <path id="Trazado_516" data-name="Trazado 516" d="M393.068,79.173c-.379-.017-.76-.035-1.163-.035s-.836.019-1.266.035l-.039,0v-.33h.13c.2,0,.486-.043.486-.206a2.633,2.633,0,0,0-.167-.6l-.321-.956h-1.863l-.263.854a3.478,3.478,0,0,0-.186.648c0,.206.318.257.6.257h.13v.33l-.039,0c-.338-.017-.683-.035-1.02-.035-.3,0-.607.019-.91.035l-.039,0v-.33h.087a.725.725,0,0,0,.7-.523l1.353-3.877a10.1,10.1,0,0,0,.336-1.071,4.346,4.346,0,0,0,.767-.363.215.215,0,0,1,.081-.019.1.1,0,0,1,.094.048c.024.069.051.145.076.213l1.556,4.419c.1.3.2.608.311.858a.5.5,0,0,0,.525.314h.085v.33Zm-2.394-.075c.418-.015.828-.031,1.231-.031s.76.017,1.127.031v-.177h-.012a.574.574,0,0,1-.593-.361c-.11-.256-.213-.569-.313-.865l-1.555-4.419c-.026-.067-.05-.143-.072-.2-.009-.008-.007-.008-.013-.008h-.016a.19.19,0,0,0-.049.01,3.127,3.127,0,0,1-.752.338,7,7,0,0,1-.313,1.055l-1.352,3.877a.8.8,0,0,1-.768.576h-.014V79.1c.29-.015.582-.031.875-.031.327,0,.66.017.983.031v-.177h-.054c-.276,0-.66-.034-.67-.333a3.351,3.351,0,0,1,.187-.669l.036.01-.036-.012.278-.9h1.97l.338,1a2.572,2.572,0,0,1,.172.62c-.013.259-.368.278-.56.283h-.056Zm-1.727-2.484.809-2.465h.045v.037l-.009,0,.009,0v-.037h.026l.8,2.465Zm.1-.074h1.479l-.735-2.264Zm.716-2.342.02-.006Z" transform="translate(-150.302 -28.339)" fill="#fff" fill-rule="evenodd"/>
    <path id="Trazado_517" data-name="Trazado 517" d="M396.783,73.653c-.634,0-.659.153-.786.769h-.254c.034-.237.077-.473.1-.718a5.158,5.158,0,0,0,.05-.718h.2c.066.254.278.245.506.245h4.36c.227,0,.438-.009.455-.262l.2.035c-.031.228-.065.456-.091.684s-.018.456-.018.684l-.253.094c-.015-.312-.058-.812-.625-.812h-1.386v4.495c0,.652.3.726.7.726h.161v.254c-.33,0-.921-.032-1.378-.032-.506,0-1.1.032-1.428.032v-.254h.162c.466,0,.7-.042.7-.708V73.653Z" transform="translate(-153.643 -28.329)" fill="#fff" fill-rule="evenodd"/>
    <path id="Trazado_518" data-name="Trazado 518" d="M400.084,79.136c-.332,0-.924-.034-1.378-.034-.5,0-1.1.034-1.427.034h-.037v-.327h.2c.466-.01.653-.017.664-.672V73.661h-1.347v-.074h1.421v4.55c0,.678-.273.745-.738.746h-.124v.18c.334,0,.9-.034,1.391-.034.442,0,1.007.031,1.34.034v-.18h-.124c-.407,0-.736-.1-.737-.764V73.587h1.421c.568,0,.642.484.658.8l.184-.067c0-.221,0-.442.018-.663s.055-.434.086-.65l-.128-.023c-.039.246-.277.26-.487.256h-4.4c-.2,0-.415-.01-.492-.246H395.9a4.958,4.958,0,0,1-.052.686c-.023.233-.064.457-.1.679h.182c.111-.589.184-.781.817-.771v.074c-.626.011-.613.117-.751.741l-.006.029h-.326l0-.042c.035-.237.077-.475.1-.718a4.922,4.922,0,0,0,.05-.713v-.037h.268l.007.026c.059.213.213.215.429.218h4.4c.233,0,.4-.007.419-.227V72.9l.039.008.24.037-.006.038c-.035.226-.067.454-.092.68s-.017.454-.017.681v.026l-.025.01-.3.11v-.049c-.022-.318-.056-.778-.59-.778h-1.348V78.12c.009.637.261.681.664.689h.2v.327Z" transform="translate(-153.617 -28.302)" fill="#fff" fill-rule="evenodd"/>
    <path id="Trazado_519" data-name="Trazado 519" d="M405.864,79.04h.118c.3,0,.625-.042.625-.481V74.133c0-.44-.32-.483-.625-.483h-.118V73.4c.33,0,.836.033,1.249.033s.931-.033,1.328-.033v.253h-.119c-.305,0-.626.042-.626.483v4.425c0,.44.321.481.626.481h.119v.254c-.406,0-.913-.032-1.335-.032s-.913.032-1.242.032Z" transform="translate(-157.573 -28.496)" fill="#fff" fill-rule="evenodd"/>
    <path id="Trazado_520" data-name="Trazado 520" d="M408.418,79.306c-.409,0-.914-.035-1.335-.035s-.912.035-1.242.035H405.8V78.98h.155c.3-.006.585-.032.587-.445V74.109c0-.413-.283-.44-.587-.446H405.8v-.327h.036c.33,0,.839.033,1.249.033s.928-.033,1.329-.033h.035v.327H408.3c-.309.006-.587.033-.59.446v4.425c0,.413.281.44.59.445h.154v.326Zm-.039-.073v-.179h-.08c-.3,0-.661-.053-.661-.519V74.109c0-.467.358-.519.661-.52h.08v-.18c-.39,0-.878.033-1.29.033s-.884-.031-1.212-.033v.18h.081c.3,0,.66.053.661.52v4.425c0,.467-.361.519-.661.519h-.081v.179c.325,0,.8-.033,1.205-.033s.9.031,1.3.033" transform="translate(-157.55 -28.472)" fill="#fff" fill-rule="evenodd"/>
    <path id="Trazado_521" data-name="Trazado 521" d="M413.605,73.19a2.964,2.964,0,0,1,3.237,2.916,3.1,3.1,0,0,1-3.193,3.235,2.985,2.985,0,0,1-3.16-3.034,3.073,3.073,0,0,1,3.116-3.117m.128,5.779c1.639,0,1.925-1.446,1.925-2.678s-.666-2.729-2.069-2.729c-1.478,0-1.918,1.318-1.918,2.449,0,1.512.694,2.958,2.062,2.958" transform="translate(-159.369 -28.416)" fill="#fff" fill-rule="evenodd"/>
    <path id="Trazado_522" data-name="Trazado 522" d="M410.428,76.284a3.115,3.115,0,0,1,3.154-3.154V73.2a3.038,3.038,0,0,0-3.082,3.08,2.95,2.95,0,0,0,3.126,3,3.062,3.062,0,0,0,3.157-3.2,2.928,2.928,0,0,0-3.2-2.878V73.13a3,3,0,0,1,3.273,2.951,3.139,3.139,0,0,1-3.229,3.272,3.028,3.028,0,0,1-3.2-3.069m1.183-.3c0-1.137.446-2.487,1.955-2.487,1.435,0,2.1,1.526,2.106,2.767s-.292,2.712-1.962,2.712v-.072c1.606,0,1.885-1.408,1.888-2.64s-.659-2.691-2.032-2.692c-1.449,0-1.878,1.287-1.881,2.412,0,1.5.688,2.919,2.026,2.921v.072c-1.4,0-2.1-1.471-2.1-2.992" transform="translate(-159.345 -28.392)" fill="#fff" fill-rule="evenodd"/>
    <path id="Trazado_523" data-name="Trazado 523" d="M426.7,77.629l.018-.017V74.446a.7.7,0,0,0-.737-.8H425.8V73.4c.4,0,.785.034,1.181.034.347,0,.694-.034,1.041-.034v.253h-.127c-.354,0-.752.068-.752,1.073v3.844a5.443,5.443,0,0,0,.051.853h-.321l-4.351-4.85v3.482c0,.735.144.988.793.988h.145v.254c-.364,0-.727-.033-1.09-.033-.381,0-.77.033-1.15.033V79.04h.119c.584,0,.76-.4.76-1.071V74.41a.757.757,0,0,0-.77-.76h-.109V73.4c.321,0,.65.034.972.034.253,0,.5-.034.751-.034Z" transform="translate(-163.534 -28.496)" fill="#fff" fill-rule="evenodd"/>
    <path id="Trazado_524" data-name="Trazado 524" d="M427.169,79.433l-.349-.012-4.288-4.778v3.385c.01.736.122.943.756.95h.182v.328h-.036c-.366,0-.729-.034-1.09-.034-.378,0-.767.034-1.15.034h-.035v-.328h.154c.557,0,.717-.36.724-1.033V74.386a.72.72,0,0,0-.732-.722h-.146v-.327h.035c.324,0,.653.033.972.033.251,0,.494-.033.78-.02l3.712,4.179V74.421c0-.671-.453-.752-.7-.758h-.223v-.327h.039c.4,0,.787.033,1.181.033.346,0,.69-.033,1.041-.033h.035v.327h-.163c-.348.009-.708.041-.715,1.036v3.844a5.662,5.662,0,0,0,.048.848l.007.042Zm-.322-.074h.277a5.932,5.932,0,0,1-.044-.815V74.7c0-1.016.426-1.108.789-1.11h.091v-.18c-.335,0-.667.033-1.005.033-.385,0-.763-.031-1.145-.033v.18h.149a.74.74,0,0,1,.771.832l-.009,3.193-.016.017-.027.028-3.76-4.249c-.25,0-.5.033-.752.033-.311,0-.628-.031-.936-.033v.18h.075a.8.8,0,0,1,.805.8v3.559c0,.676-.188,1.108-.8,1.11h-.083v.179c.367,0,.743-.033,1.114-.033.352,0,.7.031,1.053.033v-.179h-.109c-.663,0-.829-.291-.829-1.027V74.452Zm-.169-1.754.027-.024Zm-.02-.017v0l-.007-.007Z" transform="translate(-163.511 -28.472)" fill="#fff" fill-rule="evenodd"/>
    <path id="Trazado_525" data-name="Trazado 525" d="M433.671,77.952a3.51,3.51,0,0,0-.185.658c0,.254.355.3.633.3h.094v.253c-.338-.018-.685-.032-1.023-.032-.3,0-.608.015-.91.032v-.253h.048a.763.763,0,0,0,.735-.55l1.354-3.876a6.976,6.976,0,0,0,.311-1.049,4.34,4.34,0,0,0,.771-.363.182.182,0,0,1,.067-.017.054.054,0,0,1,.058.026c.026.067.051.143.076.21l1.554,4.419c.1.294.2.607.313.862a.535.535,0,0,0,.557.337h.052v.253c-.381-.018-.762-.032-1.167-.032s-.836.015-1.268.032v-.253h.094c.193,0,.524-.034.524-.245a2.714,2.714,0,0,0-.17-.609l-.329-.979h-1.917Zm1.235-3.743h-.017L434.1,76.6h1.582Z" transform="translate(-167.829 -28.362)" fill="#fff" fill-rule="evenodd"/>
    <path id="Trazado_526" data-name="Trazado 526" d="M438.149,79.173c-.38-.015-.76-.034-1.163-.034s-.836.019-1.266.034l-.037,0v-.329h.128c.2,0,.487-.045.488-.208a2.657,2.657,0,0,0-.169-.6l-.321-.956h-1.865l-.261.854a3.52,3.52,0,0,0-.184.647c0,.207.317.259.6.259h.129v.329l-.038,0c-.338-.015-.683-.034-1.02-.034-.3,0-.606.019-.911.034l-.037,0v-.329h.085a.733.733,0,0,0,.7-.525l1.351-3.877a10.62,10.62,0,0,0,.335-1.069,4.6,4.6,0,0,0,.769-.364.2.2,0,0,1,.08-.018.1.1,0,0,1,.092.05c.025.067.05.143.078.211l1.553,4.419c.1.3.2.608.313.86a.5.5,0,0,0,.522.314h.087v.329Zm-2.4-.075c.418-.015.829-.032,1.232-.032s.76.017,1.129.031v-.177H438.1a.577.577,0,0,1-.591-.361c-.111-.256-.212-.57-.313-.864l-1.554-4.42c-.025-.067-.052-.143-.072-.2-.007-.01-.006-.01-.012-.01h-.017a.162.162,0,0,0-.048.011,3.235,3.235,0,0,1-.753.337,7.193,7.193,0,0,1-.314,1.055l-1.353,3.877a.8.8,0,0,1-.77.576h-.013V79.1c.291-.015.582-.031.875-.031.327,0,.661.017.986.031v-.177H434.1c-.275,0-.659-.033-.671-.334a3.531,3.531,0,0,1,.189-.669l.034.01-.034-.012.278-.9h1.969l.34,1a2.647,2.647,0,0,1,.17.621c-.012.258-.368.278-.559.283h-.058Zm-1.726-2.485.811-2.465h.044v.037l-.01,0,.01,0v-.037h.025l.8,2.465Zm.1-.074h1.478l-.735-2.262Zm.718-2.342.017-.006Z" transform="translate(-167.805 -28.339)" fill="#fff" fill-rule="evenodd"/>
    <path id="Trazado_527" data-name="Trazado 527" d="M444.232,78.465c0,.34.235.44.506.475a6.076,6.076,0,0,0,1.116-.018,1.2,1.2,0,0,0,.81-.457,1.936,1.936,0,0,0,.262-.607h.244c-.093.481-.211.955-.312,1.436-.742,0-1.488-.032-2.23-.032s-1.487.032-2.23.032V79.04h.117c.3,0,.635-.042.635-.565V74.133c0-.44-.33-.483-.635-.483H442.4V73.4c.447,0,.887.033,1.334.033.432,0,.853-.033,1.285-.033v.253h-.212c-.321,0-.573.009-.573.457Z" transform="translate(-171.757 -28.496)" fill="#fff" fill-rule="evenodd"/>
    <path id="Trazado_528" data-name="Trazado 528" d="M446.836,79.306c-.745,0-1.49-.034-2.23-.034s-1.487.034-2.232.034h-.035V78.98h.154c.305-.008.6-.029.6-.529V74.107c0-.411-.292-.439-.6-.444h-.154v-.327h.035c.45,0,.889.033,1.335.033s.851-.033,1.286-.033h.034v.327h-.247c-.328.009-.531-.006-.538.42v4.359c0,.316.209.4.474.438.148.01.306.015.468.015a6.048,6.048,0,0,0,.64-.032,1.183,1.183,0,0,0,.786-.441,1.9,1.9,0,0,0,.255-.6l.007-.028h.318l-.007.045c-.1.483-.212.954-.314,1.436l-.007.028Zm-.031-.073c.1-.459.208-.908.3-1.363h-.174a1.907,1.907,0,0,1-.26.594,1.253,1.253,0,0,1-.837.471,6.416,6.416,0,0,1-.648.034c-.163,0-.321-.007-.475-.018-.275-.031-.54-.149-.54-.51V74.083c0-.469.3-.494.612-.494h.174v-.18c-.417,0-.827.034-1.248.034-.436,0-.864-.032-1.3-.034v.18h.081c.3,0,.67.053.67.518v4.343c0,.547-.367.6-.67.6h-.081v.179c.73,0,1.46-.033,2.194-.033s1.468.031,2.2.033" transform="translate(-171.734 -28.472)" fill="#fff" fill-rule="evenodd"/>
    <path id="Trazado_529" data-name="Trazado 529" d="M386.344,14.794a8.608,8.608,0,0,0-5.523-8.027V22.82a8.607,8.607,0,0,0,5.523-8.026m-11.68,8.023V6.769a8.592,8.592,0,0,0,0,16.048m3.08-21.591a13.566,13.566,0,1,0,13.568,13.568A13.569,13.569,0,0,0,377.744,1.226m-.033,28.413a14.849,14.849,0,0,1-14.948-14.69A14.622,14.622,0,0,1,377.711,0h3.842c8.1,0,15.5,6.108,15.5,14.949,0,8.083-7.395,14.69-15.5,14.69Z" transform="translate(-140.84 0)" fill="#fff" fill-rule="evenodd"/>
    <path id="Trazado_530" data-name="Trazado 530" d="M331.525,79.04h.119c.3,0,.625-.042.625-.481V74.133c0-.44-.321-.483-.625-.483h-.119V73.4c.329,0,.836.033,1.251.033s.929-.033,1.326-.033v.253h-.119c-.3,0-.624.042-.624.483v4.425c0,.44.322.481.624.481h.119v.254c-.4,0-.913-.032-1.334-.032s-.913.032-1.242.032Z" transform="translate(-128.712 -28.496)" fill="#fff" fill-rule="evenodd"/>
    <path id="Trazado_531" data-name="Trazado 531" d="M334.079,79.306c-.409,0-.915-.034-1.335-.034s-.91.034-1.242.034h-.037V78.98h.155c.307-.008.585-.032.589-.445V74.109c0-.414-.281-.44-.589-.446h-.155v-.327h.037c.332,0,.839.033,1.252.033s.926-.033,1.326-.033h.037v.327h-.155c-.307.006-.587.032-.589.446v4.425c0,.413.282.437.589.445h.155v.326Zm-.037-.072v-.18h-.082c-.3,0-.661-.053-.663-.519V74.109c0-.467.361-.519.663-.519h.081v-.18c-.39,0-.879.034-1.289.034s-.887-.032-1.214-.034v.18h.081c.3,0,.661.052.661.519v4.425c0,.466-.36.519-.661.519h-.081v.18c.327,0,.8-.034,1.205-.034s.9.032,1.3.034" transform="translate(-128.688 -28.472)" fill="#fff" fill-rule="evenodd"/>
    <path id="Trazado_532" data-name="Trazado 532" d="M449.467,73a.889.889,0,1,1-.889.891.874.874,0,0,1,.889-.891m0,1.613a.724.724,0,1,0-.7-.722.717.717,0,0,0,.7.722m-.442-.253v-.043c.109-.015.13-.013.13-.079v-.659c0-.093-.009-.125-.126-.12v-.045h.456c.156,0,.3.075.3.237a.279.279,0,0,1-.21.269l.146.2a.94.94,0,0,0,.2.21v.028h-.173c-.083,0-.157-.174-.32-.409h-.1v.295c0,.058.02.056.13.071v.043Zm.3-.469h.1c.115,0,.168-.087.168-.227s-.082-.191-.174-.191h-.1Z" transform="translate(-174.157 -28.344)" fill="#fff" fill-rule="evenodd"/>
  </g>
</svg>
