<svg id="Grupo_267" data-name="Grupo 267" xmlns="http://www.w3.org/2000/svg" xmlns:xlink="http://www.w3.org/1999/xlink" width="73.568" height="32.564" viewBox="0 0 73.568 32.564">
  <defs>
    <clipPath id="clip-path">
      <rect id="Rect치ngulo_177" data-name="Rect치ngulo 177" width="73.568" height="32.564" fill="none"/>
    </clipPath>
  </defs>
  <g id="Grupo_251" data-name="Grupo 251" clip-path="url(#clip-path)">
    <path id="Trazado_393" data-name="Trazado 393" d="M53.932,60.484l-.88-.908a3.358,3.358,0,0,1-2.35.9,3.2,3.2,0,0,1-1.31-.256,2.187,2.187,0,0,1-.91-.711,1.709,1.709,0,0,1-.33-1.031,2.044,2.044,0,0,1,.38-1.223,4.077,4.077,0,0,1,1.24-1.042,3.288,3.288,0,0,1-.6-.839,1.9,1.9,0,0,1-.18-.807,1.616,1.616,0,0,1,.555-1.277,2.156,2.156,0,0,1,1.474-.486,2,2,0,0,1,1.36.444,1.511,1.511,0,0,1,.51,1.2,1.67,1.67,0,0,1-.335,1.026,3.824,3.824,0,0,1-1.1.908l1.51,1.539a5.184,5.184,0,0,0,.39-1.261l1.01.352a5.346,5.346,0,0,1-.63,1.709l.88.9Zm-1.62-1.667-1.849-1.891a2.872,2.872,0,0,0-.845.679,1.187,1.187,0,0,0-.245.732.9.9,0,0,0,.39.759,1.693,1.693,0,0,0,1.03.288,2.239,2.239,0,0,0,1.52-.566m-1.939-4.846a.737.737,0,0,0-.24.572.973.973,0,0,0,.13.486,3.713,3.713,0,0,0,.5.625,3.652,3.652,0,0,0,.834-.614.836.836,0,0,0,.235-.572.666.666,0,0,0-.215-.523.86.86,0,0,0-.6-.193.927.927,0,0,0-.65.219" transform="translate(-27.313 -29.95)" fill="#272dff"/>
    <path id="Trazado_394" data-name="Trazado 394" d="M65.224,53h3.059a4.162,4.162,0,0,1,1.99.464,3.314,3.314,0,0,1,1.349,1.314,4.246,4.246,0,0,1,0,3.922,3.31,3.31,0,0,1-1.349,1.314,4.157,4.157,0,0,1-1.99.465H65.224Zm3,6.3a2.809,2.809,0,0,0,1.355-.315,2.175,2.175,0,0,0,.9-.9,3.058,3.058,0,0,0,0-2.7,2.18,2.18,0,0,0-.9-.9,2.814,2.814,0,0,0-1.355-.315h-1.7V59.3Z" transform="translate(-36.996 -30.062)" fill="#272dff"/>
    <path id="Trazado_395" data-name="Trazado 395" d="M87.989,60.294H83.8a1.571,1.571,0,0,0,.575,1,1.8,1.8,0,0,0,1.155.369,1.882,1.882,0,0,0,1.449-.62l.67.823a2.26,2.26,0,0,1-.91.695,3.393,3.393,0,0,1-2.789-.139,2.594,2.594,0,0,1-1.035-1.042,3.1,3.1,0,0,1-.365-1.512,3.147,3.147,0,0,1,.355-1.5,2.608,2.608,0,0,1,.985-1.042,2.724,2.724,0,0,1,1.42-.374,2.662,2.662,0,0,1,1.394.369,2.536,2.536,0,0,1,.96,1.037,3.32,3.32,0,0,1,.345,1.544c0,.093-.007.224-.02.4m-3.694-1.9a1.629,1.629,0,0,0-.505,1.01h3.029a1.616,1.616,0,0,0-.49-1,1.545,1.545,0,0,0-2.035-.005" transform="translate(-46.824 -32.302)" fill="#272dff"/>
    <rect id="Rect치ngulo_176" data-name="Rect치ngulo 176" width="1.25" height="7.929" transform="translate(42.185 22.488)" fill="#272dff"/>
    <path id="Trazado_396" data-name="Trazado 396" d="M103.525,52.593a.8.8,0,0,1,.57-1.373.793.793,0,0,1,.57.219.727.727,0,0,1,.23.55.837.837,0,0,1-.225.593.753.753,0,0,1-.575.24.774.774,0,0,1-.57-.23m-.06,1.17h1.25V59.47h-1.25Z" transform="translate(-58.591 -29.053)" fill="#272dff"/>
    <path id="Trazado_397" data-name="Trazado 397" d="M113.76,57.1,111.471,62.8h-1.29l-2.29-5.706h1.3l1.66,4.231,1.709-4.231Z" transform="translate(-61.198 -32.386)" fill="#272dff"/>
    <path id="Trazado_398" data-name="Trazado 398" d="M126.868,60.294h-4.189a1.571,1.571,0,0,0,.575,1,1.8,1.8,0,0,0,1.155.369,1.882,1.882,0,0,0,1.449-.62l.67.823a2.26,2.26,0,0,1-.91.695,3.393,3.393,0,0,1-2.789-.139,2.594,2.594,0,0,1-1.035-1.042,3.1,3.1,0,0,1-.365-1.512,3.147,3.147,0,0,1,.355-1.5,2.608,2.608,0,0,1,.985-1.042,2.724,2.724,0,0,1,1.42-.374,2.662,2.662,0,0,1,1.394.369,2.535,2.535,0,0,1,.96,1.037,3.32,3.32,0,0,1,.345,1.544c0,.093-.007.224-.02.4m-3.694-1.9a1.629,1.629,0,0,0-.505,1.01h3.03a1.616,1.616,0,0,0-.49-1,1.545,1.545,0,0,0-2.035-.005" transform="translate(-68.876 -32.302)" fill="#272dff"/>
    <path id="Trazado_399" data-name="Trazado 399" d="M139.441,56.949v1.272a1.473,1.473,0,0,0-.29-.032,1.457,1.457,0,0,0-1.14.454,1.89,1.89,0,0,0-.41,1.309v2.768h-1.249V57.013h1.19v.834a2.03,2.03,0,0,1,1.9-.9" transform="translate(-77.341 -32.302)" fill="#272dff"/>
    <path id="Trazado_400" data-name="Trazado 400" d="M149.64,57.1l-2.5,6.165a2.875,2.875,0,0,1-.85,1.309,1.944,1.944,0,0,1-1.21.379,2.345,2.345,0,0,1-.79-.138,1.727,1.727,0,0,1-.64-.385l.5-.983a1.344,1.344,0,0,0,.425.289,1.232,1.232,0,0,0,.5.106.818.818,0,0,0,.545-.181,1.609,1.609,0,0,0,.395-.609l.09-.224-2.33-5.727h1.3l1.68,4.221,1.69-4.221Z" transform="translate(-81.481 -32.386)" fill="#272dff"/>
    <path id="Trazado_401" data-name="Trazado 401" d="M9.851,4.823H.739a.729.729,0,0,0-.728.728V7.007a.715.715,0,0,0,.715.715H9.334a1.907,1.907,0,0,1,1.907,1.907v8.546a.729.729,0,0,0,.73.729h1.413a.757.757,0,0,0,.757-.757V9.112a4.289,4.289,0,0,0-4.29-4.289" transform="translate(-0.006 -2.736)" fill="#272dff"/>
    <path id="Trazado_402" data-name="Trazado 402" d="M9.757,25.324H4.807A1.907,1.907,0,0,1,2.9,23.417V15.438a.741.741,0,0,0-.74-.741H.731A.731.731,0,0,0,0,15.428v8.486a4.31,4.31,0,0,0,4.31,4.31H9.769a.737.737,0,0,0,.737-.737V26.073a.749.749,0,0,0-.749-.749" transform="translate(0 -8.336)" fill="#14c0cc"/>
    <path id="Trazado_403" data-name="Trazado 403" d="M165.875,64.027h-1.261a.68.68,0,0,0-.679.679v1.261a.679.679,0,0,0,.679.679h1.261a.68.68,0,0,0,.679-.679V64.706a.68.68,0,0,0-.679-.679" transform="translate(-92.986 -36.317)" fill="#14c0cc"/>
    <path id="Trazado_404" data-name="Trazado 404" d="M55.105,5.886a5.808,5.808,0,0,1,2.5,2.233,6.475,6.475,0,0,1,.878,3.425,6.491,6.491,0,0,1-.878,3.413,5.7,5.7,0,0,1-2.5,2.232,8.834,8.834,0,0,1-3.834.774H47.925v4.9H44.079V5.1h7.193a8.722,8.722,0,0,1,3.834.786m-1.413,7.929a2.874,2.874,0,0,0,.9-2.271,2.905,2.905,0,0,0-.9-2.3,3.858,3.858,0,0,0-2.635-.8H47.925v6.165h3.133a3.858,3.858,0,0,0,2.635-.8" transform="translate(-25.002 -2.893)" fill="#14c0cc"/>
    <path id="Trazado_405" data-name="Trazado 405" d="M80.482,3.78a2.121,2.121,0,0,1-.641-1.573A2.122,2.122,0,0,1,80.482.634,2.262,2.262,0,0,1,82.144,0a2.313,2.313,0,0,1,1.661.609,2.011,2.011,0,0,1,.641,1.522,2.227,2.227,0,0,1-.641,1.636,2.236,2.236,0,0,1-1.661.647,2.26,2.26,0,0,1-1.662-.634m-.19,2.537H84v13.65h-3.7Z" transform="translate(-45.287 0)" fill="#14c0cc"/>
    <path id="Trazado_406" data-name="Trazado 406" d="M96.459,27.283a6.494,6.494,0,0,1-2.54-2.5A7.177,7.177,0,0,1,93,21.156a7.18,7.18,0,0,1,.914-3.628,6.494,6.494,0,0,1,2.54-2.5,7.441,7.441,0,0,1,3.667-.9,6.743,6.743,0,0,1,3.525.9,5.232,5.232,0,0,1,2.2,2.575l-2.872,1.649a3.216,3.216,0,0,0-5.27-.863,3.885,3.885,0,0,0-.95,2.765,3.887,3.887,0,0,0,.95,2.766,3.142,3.142,0,0,0,2.4,1.014,3.09,3.09,0,0,0,2.872-1.877l2.872,1.674a5.328,5.328,0,0,1-2.2,2.537,6.669,6.669,0,0,1-3.525.914,7.436,7.436,0,0,1-3.667-.9" transform="translate(-52.754 -8.014)" fill="#14c0cc"/>
    <path id="Trazado_407" data-name="Trazado 407" d="M130.686,16.109l-1.78,1.877v3.476h-3.7V2.637h3.7V13.293l5.412-5.48h4.415L133.416,13.6l5.792,7.865h-4.487Z" transform="translate(-71.017 -1.496)" fill="#00cad7"/>
  </g>
</svg>
