<svg xmlns="http://www.w3.org/2000/svg" xmlns:xlink="http://www.w3.org/1999/xlink" width="75.416" height="28.822" viewBox="0 0 75.416 28.822">
  <defs>
    <clipPath id="clip-path">
      <rect id="Rectángulo_178" data-name="Rectángulo 178" width="75.416" height="28.822" fill="none"/>
    </clipPath>
  </defs>
  <g id="Grupo_253" data-name="Grupo 253" clip-path="url(#clip-path)">
    <path id="Trazado_408" data-name="Trazado 408" d="M168.789,60.772h-1.032a.557.557,0,0,0-.557.557v1.032a.557.557,0,0,0,.557.557h1.032a.557.557,0,0,0,.557-.557V61.329a.556.556,0,0,0-.557-.557" transform="translate(-93.929 -34.141)" fill="#575756"/>
    <path id="Trazado_409" data-name="Trazado 409" d="M8.067.345H.606a.6.6,0,0,0-.6.6V2.133A.585.585,0,0,0,.6,2.718H7.644A1.562,1.562,0,0,1,9.205,4.28v7a.6.6,0,0,0,.6.6h1.157a.62.62,0,0,0,.62-.62v-7.4A3.512,3.512,0,0,0,8.067.345" transform="translate(-0.006 -0.194)" fill="#272dff"/>
    <path id="Trazado_410" data-name="Trazado 410" d="M7.989,17.031H3.936A1.562,1.562,0,0,1,2.374,15.47V8.936a.607.607,0,0,0-.606-.606H.6a.6.6,0,0,0-.6.6v6.948a3.529,3.529,0,0,0,3.529,3.529H8a.6.6,0,0,0,.6-.6V17.644a.613.613,0,0,0-.613-.613" transform="translate(0 -4.68)" fill="#575756"/>
    <path id="Trazado_411" data-name="Trazado 411" d="M37.744,14.573a7.114,7.114,0,0,1-2.42-1.215l1.069-2.535a7.094,7.094,0,0,0,2.08,1.1,7.355,7.355,0,0,0,2.41.415,3.645,3.645,0,0,0,1.983-.426,1.3,1.3,0,0,0,.641-1.132,1.112,1.112,0,0,0-.379-.862,2.827,2.827,0,0,0-.972-.551q-.593-.206-1.6-.457a21.114,21.114,0,0,1-2.547-.789,4.144,4.144,0,0,1-1.7-1.268,3.574,3.574,0,0,1-.71-2.327,4.25,4.25,0,0,1,.642-2.3A4.378,4.378,0,0,1,38.171.6,7.445,7.445,0,0,1,41.33,0a9.819,9.819,0,0,1,2.547.333,7.262,7.262,0,0,1,2.177.955l-.972,2.555A7.226,7.226,0,0,0,41.311,2.7a3.354,3.354,0,0,0-1.954.458,1.418,1.418,0,0,0-.631,1.2,1.178,1.178,0,0,0,.729,1.111,10.871,10.871,0,0,0,2.226.716,21.291,21.291,0,0,1,2.547.79,4.223,4.223,0,0,1,1.7,1.246,3.492,3.492,0,0,1,.71,2.306,4.164,4.164,0,0,1-.652,2.275,4.436,4.436,0,0,1-1.953,1.631,7.517,7.517,0,0,1-3.168.6,10.467,10.467,0,0,1-3.12-.468" transform="translate(-19.844 0)" fill="#575756"/>
    <path id="Trazado_412" data-name="Trazado 412" d="M74.26,8.248V19.424H71.383v-1.33a4.043,4.043,0,0,1-1.438,1.111,4.7,4.7,0,0,1-5.073-.883,5.264,5.264,0,0,1-1.205-3.76V8.248H66.7v5.838q0,2.7,2.118,2.7a2.206,2.206,0,0,0,1.749-.759,3.345,3.345,0,0,0,.661-2.254V8.248Z" transform="translate(-35.766 -4.634)" fill="#575756"/>
    <path id="Trazado_413" data-name="Trazado 413" d="M101.331,8.585a5,5,0,0,1,1.876,2.015,6.424,6.424,0,0,1,.681,3.023,6.419,6.419,0,0,1-.681,3.022,5,5,0,0,1-1.876,2.015,5.062,5.062,0,0,1-2.653.716,3.91,3.91,0,0,1-3.149-1.35v5.214H92.5V8.035h2.9V9.323a3.905,3.905,0,0,1,3.285-1.454,5.062,5.062,0,0,1,2.653.716m-1.263,7.292a3.267,3.267,0,0,0,.748-2.254,3.269,3.269,0,0,0-.748-2.254,2.6,2.6,0,0,0-3.829,0,3.267,3.267,0,0,0-.748,2.254,3.265,3.265,0,0,0,.748,2.254,2.6,2.6,0,0,0,3.829,0" transform="translate(-51.963 -4.421)" fill="#575756"/>
    <path id="Trazado_414" data-name="Trazado 414" d="M130.516,14.538H122.6a2.648,2.648,0,0,0,1.011,1.641,3.192,3.192,0,0,0,1.983.6,3.782,3.782,0,0,0,1.448-.26,3.491,3.491,0,0,0,1.176-.821l1.614,1.87a5.25,5.25,0,0,1-4.315,1.807,6.463,6.463,0,0,1-3.13-.738,5.2,5.2,0,0,1-2.1-2.046,5.938,5.938,0,0,1-.739-2.971,6.016,6.016,0,0,1,.729-2.96,5.276,5.276,0,0,1,2-2.057,5.844,5.844,0,0,1,5.627-.031,5,5,0,0,1,1.954,2.025,6.373,6.373,0,0,1,.709,3.064q0,.062-.058.873m-7.095-3.594a2.71,2.71,0,0,0-.855,1.7h5.151a2.737,2.737,0,0,0-.855-1.693,2.457,2.457,0,0,0-1.71-.634,2.507,2.507,0,0,0-1.73.623" transform="translate(-67.162 -4.421)" fill="#575756"/>
    <path id="Trazado_415" data-name="Trazado 415" d="M151.905,8.284a5.145,5.145,0,0,1,2.128-.415v2.992q-.506-.041-.681-.042a2.678,2.678,0,0,0-2.041.779,3.283,3.283,0,0,0-.738,2.337v5.277h-3.032V8.036h2.9V9.51a3.417,3.417,0,0,1,1.468-1.226" transform="translate(-82.886 -4.421)" fill="#575756"/>
    <path id="Trazado_416" data-name="Trazado 416" d="M92.672,55.332a3.564,3.564,0,0,1-1.35-1.384,4.287,4.287,0,0,1,0-3.984,3.6,3.6,0,0,1,1.355-1.383,4,4,0,0,1,3.511-.178,3.241,3.241,0,0,1,1.209.937l-.846.851a2.4,2.4,0,0,0-1.884-.883,2.51,2.51,0,0,0-1.3.339,2.37,2.37,0,0,0-.9.942,3.065,3.065,0,0,0,0,2.735,2.367,2.367,0,0,0,.9.942,2.506,2.506,0,0,0,1.3.339,2.386,2.386,0,0,0,1.884-.894l.846.862a3.235,3.235,0,0,1-1.214.937,3.83,3.83,0,0,1-1.587.323,3.771,3.771,0,0,1-1.929-.5" transform="translate(-51.028 -27.01)" fill="#272dff"/>
    <path id="Trazado_417" data-name="Trazado 417" d="M112.647,50.1a2.61,2.61,0,0,1,.615,1.884v3.295H112V52.161a1.687,1.687,0,0,0-.332-1.136,1.187,1.187,0,0,0-.947-.383,1.405,1.405,0,0,0-1.1.447,1.859,1.859,0,0,0-.4,1.287v2.908h-1.259v-7.99h1.259V50.2a2.046,2.046,0,0,1,.771-.544,2.663,2.663,0,0,1,1.023-.188,2.166,2.166,0,0,1,1.632.635" transform="translate(-60.651 -26.569)" fill="#272dff"/>
    <path id="Trazado_418" data-name="Trazado 418" d="M127.835,55.627h-4.221a1.585,1.585,0,0,0,.579,1.007,1.815,1.815,0,0,0,1.164.371,1.9,1.9,0,0,0,1.461-.624l.675.829a2.285,2.285,0,0,1-.917.7,3.42,3.42,0,0,1-2.811-.14,2.62,2.62,0,0,1-1.043-1.05,3.126,3.126,0,0,1-.368-1.524,3.172,3.172,0,0,1,.358-1.513,2.627,2.627,0,0,1,.992-1.05,2.745,2.745,0,0,1,1.431-.377,2.677,2.677,0,0,1,1.405.372,2.551,2.551,0,0,1,.967,1.044,3.344,3.344,0,0,1,.348,1.556c0,.093-.007.226-.02.4m-3.723-1.912a1.644,1.644,0,0,0-.509,1.018h3.053a1.624,1.624,0,0,0-.493-1.012,1.446,1.446,0,0,0-1.028-.387,1.461,1.461,0,0,0-1.023.382" transform="translate(-68.736 -29.357)" fill="#272dff"/>
    <path id="Trazado_419" data-name="Trazado 419" d="M137.606,57.77a2.67,2.67,0,0,1-1.038-1.05,3.094,3.094,0,0,1-.373-1.524,3.061,3.061,0,0,1,.373-1.518,2.691,2.691,0,0,1,1.032-1.045,2.985,2.985,0,0,1,1.507-.377,2.752,2.752,0,0,1,1.4.345,2.174,2.174,0,0,1,.9.99l-.968.6a1.591,1.591,0,0,0-.579-.6,1.508,1.508,0,0,0-.761-.2,1.538,1.538,0,0,0-1.168.49,2.087,2.087,0,0,0-.005,2.617A1.536,1.536,0,0,0,139.1,57a1.5,1.5,0,0,0,.761-.2,1.587,1.587,0,0,0,.579-.6l.968.6a2.266,2.266,0,0,1-.912,1,2.7,2.7,0,0,1-1.385.35,2.987,2.987,0,0,1-1.5-.377" transform="translate(-76.511 -29.357)" fill="#272dff"/>
    <path id="Trazado_420" data-name="Trazado 420" d="M152.186,52.817l-.937.947v1.518H149.99v-7.99h1.259v4.824l2.61-2.585h1.511l-2.246,2.412,2.458,3.338H154.05Z" transform="translate(-84.261 -26.568)" fill="#272dff"/>
  </g>
</svg>
