<?xml version="1.0" standalone="no"?>
<!DOCTYPE svg PUBLIC "-//W3C//DTD SVG 20010904//EN"
 "http://www.w3.org/TR/2001/REC-SVG-20010904/DTD/svg10.dtd">
<svg version="1.0" xmlns="http://www.w3.org/2000/svg"
 width="2560.000000pt" height="574.000000pt" viewBox="0 0 2560.000000 574.000000"
 preserveAspectRatio="xMidYMid meet">

<g transform="translate(0.000000,574.000000) scale(0.100000,-0.100000)"
fill="#000000" stroke="none">
<path d="M2603 5720 c-248 -24 -518 -85 -737 -166 -270 -99 -611 -294 -821
-469 -566 -471 -920 -1107 -1022 -1835 -24 -174 -24 -566 0 -740 116 -828 565
-1546 1255 -2007 132 -88 350 -202 507 -267 739 -301 1613 -268 2326 90 305
152 526 313 766 556 150 152 226 245 343 421 241 360 382 730 451 1177 19 122
23 186 23 400 0 275 -16 422 -70 649 -100 424 -301 829 -576 1163 -99 119
-297 315 -413 408 -321 260 -723 456 -1135 554 -254 61 -651 90 -897 66z m632
-284 c726 -117 1343 -508 1754 -1111 212 -310 344 -644 413 -1041 20 -113 22
-164 22 -404 0 -296 -11 -402 -69 -631 -132 -521 -431 -1000 -835 -1338 -483
-405 -1047 -611 -1670 -611 -341 0 -643 56 -950 177 -805 317 -1406 1032
-1580 1878 -68 329 -67 733 1 1054 140 657 508 1209 1069 1602 302 212 714
373 1083 423 62 9 126 18 142 20 75 10 525 -3 620 -18z"/>
<path d="M1614 4618 c-489 -346 -814 -896 -885 -1502 -15 -131 -6 -472 16
-591 80 -436 272 -817 564 -1118 102 -106 209 -198 305 -266 l59 -41 99 0 98
0 0 485 0 485 980 0 980 0 0 -485 0 -485 102 0 101 0 96 72 c373 279 643 675
776 1132 49 171 67 297 72 512 8 292 -18 474 -101 728 -107 324 -277 599 -520
842 -67 66 -168 155 -225 197 l-104 77 -98 0 -99 0 0 -490 0 -490 -977 2 -978
3 -3 488 -2 487 -98 0 -99 0 -59 -42z m-14 -1740 l0 -1392 -76 74 c-258 255
-432 579 -512 949 -24 117 -26 144 -27 366 0 212 3 253 23 355 60 295 179 558
361 795 41 54 219 245 227 245 2 0 4 -627 4 -1392z m2655 1235 c528 -600 611
-1487 204 -2179 -85 -143 -224 -318 -326 -408 l-33 -28 0 1388 0 1388 41 -39
c23 -22 74 -77 114 -122z m-425 -1228 l0 -535 -980 0 -980 0 0 528 c0 291 3
532 7 535 3 4 444 7 980 7 l973 0 0 -535z"/>
<path d="M16870 4854 c-450 -61 -803 -272 -988 -592 -171 -294 -195 -695 -62
-1015 116 -278 380 -496 752 -621 57 -19 225 -62 374 -95 280 -63 401 -99 491
-145 121 -61 173 -140 173 -263 0 -101 -28 -173 -94 -238 -97 -96 -227 -138
-421 -138 -333 0 -629 135 -869 395 l-75 82 -238 -234 c-131 -128 -265 -259
-297 -291 l-59 -58 25 -33 c52 -68 233 -241 328 -312 342 -257 727 -366 1247
-353 171 4 229 10 329 31 499 106 864 384 1009 771 105 276 97 660 -19 909
-114 247 -315 412 -639 523 -117 39 -208 63 -542 138 -325 74 -431 114 -520
196 -62 57 -89 125 -83 211 12 157 111 261 293 308 268 69 655 -51 870 -270
27 -27 54 -50 60 -50 14 0 575 562 575 576 0 28 -229 225 -355 307 -346 222
-823 320 -1265 261z"/>
<path d="M13385 4845 c-245 -39 -463 -122 -659 -252 -141 -93 -338 -291 -435
-437 -168 -253 -276 -544 -328 -886 -22 -143 -25 -589 -5 -715 71 -446 202
-764 430 -1046 314 -389 808 -600 1352 -576 857 38 1456 608 1614 1537 68 397
31 869 -95 1238 -208 606 -646 1003 -1236 1123 -140 28 -497 36 -638 14z m448
-901 c211 -47 385 -188 494 -399 182 -354 190 -900 18 -1264 -88 -185 -195
-301 -350 -377 -110 -54 -197 -74 -336 -74 -411 0 -690 288 -776 800 -19 115
-21 389 -4 509 64 441 288 734 616 806 85 19 252 18 338 -1z"/>
<path d="M20431 4849 c-216 -23 -392 -74 -586 -169 -214 -106 -375 -234 -524
-420 -215 -267 -350 -596 -407 -995 -22 -149 -25 -524 -5 -665 70 -511 252
-903 561 -1210 341 -339 786 -494 1318 -460 493 32 811 184 1111 534 130 151
212 269 198 282 -6 6 -177 122 -379 257 l-367 247 -57 -83 c-88 -126 -185
-217 -285 -266 -104 -51 -194 -71 -330 -71 -415 -1 -728 300 -824 791 -23 115
-30 350 -16 476 43 368 224 656 497 789 109 53 198 74 322 74 238 0 429 -90
572 -269 28 -34 61 -81 73 -102 12 -21 26 -39 30 -39 15 0 747 489 747 499 0
5 -41 64 -92 132 -203 272 -443 463 -713 568 -236 92 -555 130 -844 100z"/>
<path d="M8540 2890 l0 -1881 1043 4 c1034 3 1043 3 1139 25 491 112 828 442
894 876 35 226 -15 483 -128 657 -51 80 -155 188 -233 244 -64 46 -196 115
-257 135 -36 11 -52 30 -25 30 27 0 170 93 233 152 200 188 289 444 255 738
-46 403 -272 693 -636 818 -235 80 -260 82 -1342 82 l-943 0 0 -1880z m1744
1079 c73 -27 148 -96 183 -167 25 -50 28 -68 28 -152 0 -82 -4 -103 -27 -153
-36 -75 -112 -149 -185 -179 -57 -22 -67 -23 -447 -26 l-389 -3 6 233 c4 128
7 286 7 351 l0 117 385 0 c363 0 387 -1 439 -21z m50 -1453 c95 -27 142 -51
195 -101 74 -69 96 -127 96 -250 0 -93 -2 -105 -33 -167 -43 -88 -102 -135
-221 -176 -39 -13 -114 -16 -478 -19 l-433 -4 0 364 c0 200 3 367 7 371 5 4
188 6 408 4 339 -4 409 -7 459 -22z"/>
<path d="M22490 2890 l0 -1880 490 0 490 0 0 745 0 745 570 0 570 0 0 -745 0
-745 495 0 495 0 0 1880 0 1880 -495 0 -495 0 0 -690 0 -690 -570 0 -570 0 0
690 0 690 -490 0 -490 0 0 -1880z"/>
</g>
</svg>
