<?xml version="1.0" encoding="UTF-8"?>
<svg id="Capa_2" data-name="Capa 2" xmlns="http://www.w3.org/2000/svg" viewBox="0 0 287.75 38.11">
  <defs>
    <style>
      .cls-1 {
        fill: #3c3c3b;
      }

      .cls-2 {
        fill: #706f6f;
      }
    </style>
  </defs>
  <g id="Capa_1-2" data-name="Capa 1">
    <g>
      <path class="cls-1" d="M14.12,0c6.51.01,13.01,0,19.52,0-.69.75-1.49,1.37-2.21,2.09-6.86,6.32-13.7,12.66-20.55,18.98-1.29,1.17-2.55,2.38-3.85,3.54.06-.32.13-.64.23-.96C9.57,15.78,11.81,7.88,14.12,0Z"/>
      <path class="cls-2" d="M25.99,27.48C28.65,18.33,31.3,9.18,33.95.03c1.97.03,3.98-.13,5.91.37,1.63.39,3.19,1.29,4.09,2.74,1.09,1.73,1.17,3.9.83,5.86-.44,2.42-1.53,4.84-3.52,6.38-2.03,1.59-4.67,2.09-7.19,2.15-.06.22-.13.43-.19.65,2.06.07,4.23.81,5.56,2.47,1.32,1.61,1.61,3.83,1.31,5.84-.28,1.82-.87,3.61-1.79,5.21-1.06,1.86-2.7,3.38-4.63,4.3-2.68,1.3-5.7,1.66-8.65,1.72-8.57,0-17.14,0-25.7,0,8.4-7.82,16.8-15.65,25.2-23.47-1.61,5.57-3.22,11.14-4.83,16.72.91-.01,1.82.02,2.73-.01.67-.02,1.38-.25,1.81-.8.61-.76.8-1.75,1.08-2.66Z"/>
      <path class="cls-2" d="M124.25,7.29c1.77-.16,3.56-.11,5.34-.17,1.4.05,2.81.02,4.21.14,1.08.1,2.18.24,3.18.67.99.44,1.71,1.3,2.22,2.23.46.93.46,2.02.34,3.03-.17,1.34-.57,2.64-.99,3.93-3.32,0-6.64,0-9.96,0,.91-3.29,1.84-6.57,2.75-9.87-1.03.79-2.07,1.58-3.07,2.42-.97.82-1.91,1.79-2.26,3.04-1.65,5.7-3.29,11.4-4.94,17.1-.32.88.08,2.03,1.03,2.3.71.16,1.45.04,2.17.07,1.09-3.72,2.14-7.44,3.25-11.15,3.33-.08,6.68-.01,10.01-.03-1.58,5.57-3.23,11.13-4.83,16.7-3.27,0-6.54,0-9.81,0-1.95,0-3.91,0-5.85-.18-1.37-.15-2.79-.45-3.88-1.33-.93-.75-1.75-1.72-2.02-2.91-.38-1.63-.11-3.33.21-4.95.43-2.1,1.1-4.13,1.64-6.2.9-3.09,1.58-6.26,2.91-9.21.78-1.72,1.84-3.43,3.52-4.4,1.44-.9,3.17-1.11,4.83-1.24Z"/>
      <path class="cls-2" d="M172.94,7.44c2.56-.29,5.13-.27,7.7-.28.06.07.12.14.19.21-1.01.75-1.99,1.52-2.97,2.31-.85.72-1.75,1.47-2.18,2.52-.45,1.16-.79,2.37-1.02,3.59-.1.46-.11.96.17,1.36.49.73,1.36,1.09,2.2,1.23,2.07.3,4.18.69,6.05,1.67.94.49,1.83,1.26,2.11,2.33.73,2.49.21,5.15-.57,7.56-.68,1.97-1.57,3.9-2.87,5.55-.72.89-1.75,1.49-2.83,1.83-1.4.44-2.88.59-4.34.69-2.11.1-4.22.12-6.32.04-1.5-.05-3.03-.13-4.47-.6-1.9-.61-3.18-2.57-3.21-4.53-.04-2,.61-3.93,1.21-5.82,3.24,0,6.47,0,9.71,0-.34,1.11-.64,2.22-.97,3.34-.16.6-.24,1.42.36,1.8.61.34,1.37.28,2.04.14.78-.2,1.11-1.02,1.34-1.7.3-.98.66-1.95.8-2.97.1-.72-.13-1.61-.87-1.88-2.23-.98-4.73-1.08-7.01-1.92-1.05-.44-1.93-1.28-2.36-2.34-.53-1.28-.45-2.71-.2-4.04.3-1.37.64-2.73,1.06-4.06.38-1.16.83-2.32,1.62-3.27.66-.82,1.57-1.37,2.49-1.87.96-.53,2.06-.75,3.14-.88Z"/>
      <path class="cls-2" d="M222.2,7.17c1.93-.01,3.87-.06,5.8.07,1.42.12,2.88.28,4.18.91,1.07.51,1.87,1.49,2.26,2.6.38,1.01.38,2.11.33,3.18-.19,2.33-.96,4.55-1.6,6.78-.81,2.75-1.61,5.51-2.42,8.26-.58,1.91-1.31,3.81-2.5,5.44-.76,1.02-1.62,2.03-2.8,2.56-1.99.9-4.23.94-6.38,1.04-1.73.04-3.46.06-5.19,0-1.58-.07-3.2-.13-4.71-.66-1.1-.39-2-1.19-2.67-2.13-.5-.7-.75-1.56-.76-2.42-.03-1.14.18-2.27.42-3.38.59-2.63,1.42-5.19,2.11-7.79.77-2.64,1.36-5.35,2.38-7.91.7-1.71,1.6-3.44,3.1-4.58.94-.72,2.03-1.27,3.2-1.51,1.72-.36,3.49-.4,5.24-.46M221.91,11.34c-.75.82-.9,1.95-1.22,2.98-1.53,5.37-3.08,10.75-4.61,16.12-.14.57-.23,1.32.31,1.71.63.42,1.46.35,2.17.22.54-.1.94-.54,1.14-1.03.4-.96.64-1.98.94-2.98,2.01-7.02,4.04-14.04,6.05-21.07-1.61,1.33-3.4,2.47-4.79,4.06Z"/>
      <path class="cls-2" d="M180.89,7.48c-.02-.08-.05-.24-.07-.31,1.6.09,3.23.14,4.77.63.82.27,1.63.71,2.14,1.43.63.86.8,1.95.79,2.99,0,1.54-.34,3.06-.81,4.52-3.17,0-6.35,0-9.52,0,.91-3.08,1.77-6.18,2.7-9.26Z"/>
      <path class="cls-2" d="M76.15,7.58c3.39-.02,6.78,0,10.17,0-2.91,10.05-5.82,20.09-8.74,30.14-3.39,0-6.77,0-10.16,0,2.91-10.04,5.84-20.08,8.73-30.13Z"/>
      <path class="cls-2" d="M90.34,7.57c3.41,0,6.82,0,10.23,0,2.11.03,4.24-.11,6.33.19,1.37.2,2.78.67,3.75,1.7,1.04,1.1,1.49,2.64,1.5,4.13,0,1.63-.35,3.24-.8,4.81-1,3.47-1.99,6.94-2.99,10.41-.52,1.7-1.18,3.38-2.25,4.81-1.01,1.36-2.39,2.46-3.98,3.06-2.11.8-4.39.97-6.63,1.02-4.64,0-9.27,0-13.91,0,2.92-10.04,5.83-20.09,8.74-30.14M99.38,11.65c-.57.74-.8,1.65-1.05,2.53-1.74,6.01-3.48,12.01-5.22,18.02,1.04-.05,2.14.16,3.13-.28.67-.28,1.13-.93,1.31-1.62,2.17-7.55,4.36-15.1,6.52-22.65-1.59,1.29-3.43,2.34-4.68,3.99Z"/>
      <path class="cls-2" d="M149.4,7.63c1.65-.15,3.32-.05,4.97-.06,3.49,0,6.98,0,10.47,0-.59,2.01-1.17,4.01-1.75,6.02-2.79.02-5.58,0-8.36.01-.71,0-1.47.08-2.06.52-.53.4-.74,1.06-.92,1.67-.61,2.15-1.23,4.31-1.84,6.46.97-.84,1.91-1.74,3.05-2.35,1.03-.55,2.22-.68,3.38-.7,1.58-.01,3.16,0,4.75,0-.58,2.01-1.16,4.01-1.74,6.02-3.44,0-6.88,0-10.31,0-.37,1.36-.79,2.7-1.16,4.06-.13.6-.23,1.37.29,1.82.59.48,1.4.45,2.11.5,2.66,0,5.32,0,7.99,0-.59,2.05-1.19,4.09-1.78,6.13h-10.42c-.95,0-1.91.04-2.85-.1-1.36-.19-2.73-.62-3.82-1.48-.86-.68-1.39-1.74-1.51-2.82-.17-1.46.11-2.92.46-4.33,1.45-5.16,2.85-10.33,4.4-15.46.54-1.67,1.37-3.34,2.82-4.4,1.12-.8,2.45-1.34,3.84-1.46Z"/>
      <path class="cls-2" d="M191.15,7.57c6.68,0,13.37,0,20.05,0-.61,2.07-1.2,4.14-1.81,6.21-1.69,0-3.37,0-5.05,0-2.29,7.98-4.62,15.95-6.93,23.93-3.35,0-6.7,0-10.05,0,1.56-5.36,3.12-10.72,4.68-16.08.39-1.17.57-2.43,1.21-3.51,1.1-1.81,2.91-3.01,4.51-4.33-2.8,0-5.6,0-8.4,0,.6-2.07,1.19-4.14,1.79-6.2Z"/>
      <path class="cls-2" d="M270.65,7.98c1.19-.41,2.46-.41,3.71-.43,4.46.04,8.93,0,13.39.02-.53,1.84-1.08,3.68-1.6,5.52-.08.19-.08.57-.38.51-2.36,0-4.72,0-7.08,0-.84.01-1.7-.07-2.51.2-.51.17-.95.54-1.18,1.04-.3.63-.44,1.31-.64,1.97-.52,1.81-1.03,3.62-1.55,5.43,1.13-.96,2.21-2.05,3.62-2.6.95-.37,1.98-.43,3-.45,1.52,0,3.04,0,4.56,0-.58,2.01-1.17,4.01-1.74,6.02-3.44,0-6.87,0-10.31,0-.37,1.28-.75,2.55-1.11,3.83-.14.53-.27,1.13-.05,1.66.19.45.66.67,1.11.76.98.18,1.98.11,2.97.13,2.1,0,4.2,0,6.3,0-.59,2.04-1.19,4.09-1.78,6.13-3.95,0-7.89,0-11.84,0-1.31-.02-2.63-.24-3.83-.75-.86-.37-1.68-.92-2.21-1.71-.57-.82-.78-1.84-.76-2.83,0-1.88.58-3.69,1.08-5.48,1.2-4.26,2.36-8.52,3.62-12.76.44-1.51,1.02-3.03,2.08-4.22.83-.95,1.96-1.58,3.14-1.99Z"/>
      <path class="cls-2" d="M48.9,7.57c4.48,0,8.96.02,13.44,0,.02.11,0,.22-.09.29-1.34,1.09-2.79,2.08-3.97,3.36-.47.52-.86,1.14-1.05,1.82-2.39,8.22-4.78,16.45-7.17,24.67-3.3,0-6.6,0-9.9,0,2.92-10.04,5.83-20.09,8.75-30.14Z"/>
      <path class="cls-2" d="M62.51,7.97c-.02-.14-.04-.28-.06-.43,1.87.06,3.83-.09,5.6.64,1.47.6,2.52,2.03,2.74,3.59.22,1.52-.11,3.05-.55,4.5-.41,1.35-1.05,2.68-2.12,3.63-1.57,1.42-3.78,1.76-5.82,1.77-.06.21-.11.42-.16.64,1.17.1,2.4.35,3.35,1.09.77.58,1.22,1.51,1.36,2.45.2,1.25-.04,2.51-.35,3.72-.69,2.72-1.37,5.43-2.09,8.14-3.52,0-7.04,0-10.56,0,1.58-5.47,3.16-10.94,4.73-16.4,1.27-4.47,2.61-8.93,3.85-13.41l.1.09Z"/>
      <path class="cls-2" d="M231.38,37.71c2.92-10.04,5.84-20.09,8.75-30.14,4.59,0,9.18,0,13.77,0-.05.06-.15.18-.2.24-.63.43-1.21.94-1.82,1.4-.98.78-2.01,1.55-2.78,2.55-.61.79-.8,1.78-1.08,2.71-2.24,7.75-4.48,15.5-6.73,23.24-3.31,0-6.61,0-9.92,0Z"/>
      <path class="cls-2" d="M253.79,7.89c.04-.2.25-.38.46-.32,1.56.02,3.15-.07,4.67.36,1.04.28,1.88,1.02,2.5,1.87.63.79.79,1.83.78,2.81-.05,1.93-.61,3.79-1.19,5.62-1.89,6.5-3.78,13-5.67,19.5-3.4,0-6.81,0-10.21,0,2.89-9.94,5.77-19.88,8.66-29.82Z"/>
    </g>
  </g>
</svg>