<?xml version="1.0" encoding="UTF-8"?>
<svg id="Capa_2" data-name="Capa 2" xmlns="http://www.w3.org/2000/svg" viewBox="0 0 279.18 87.69">
  <defs>
    <style>
      .cls-1 {
        fill: #706f6f;
        fill-rule: evenodd;
      }
    </style>
  </defs>
  <g id="Capa_1-2" data-name="Capa 1">
    <path class="cls-1" d="M105.42,59.48l-2.86,6.1h4.77l-7.24,15.25h-4.76l-3.05,6.67h17.54l3.05-6.29h-4.77l5.15-10.87,11.63,16.97h8.39l10.48-21.73h4l2.86-5.91h-16.97l-2.48,5.53h4.57l-3.81,8.01-8.58-13.73h-17.92ZM15.25,65.01h-5.15l2.86-6.1h30.69s3.81-.57,8.01,2.1c5.34,3.24-3.05,20.59-10.29,24.21-3.24,1.72-6.86,1.14-6.86,1.14H0l3.05-6.67h5.53l6.67-14.68h0ZM30.88,66.15l-5.91,12.58s1.72.95,3.81.95,3.81-1.33,3.81-1.33l3.81-8.39s1.34-4-1.33-4c-2.86-.19-4.19.19-4.19.19h0ZM237.34,66.53l3.24-6.86h28.79s5.91-.57,8.77,2.29c2.86,2.86-.95,9.72-2.29,11.63-2.48,3.24-8.2,3.43-8.2,3.43h-15.25l-1.33,3.43h4.96l-3.43,6.86h-24.97l3.05-6.86h5.15l6.67-13.92h-5.15ZM258.31,66.15l-1.91,4.19s6.1.76,6.86-1.72c.95-3.43-4.96-2.48-4.96-2.48h0ZM122.39,40.61c-7.43-.57-13.34-6.86-13.34-14.49s5.91-13.73,13.15-14.3c-4.39-6.1-8.58-11.82-8.58-11.82l48.23,27.07-49.76,27.26,10.3-13.73h0ZM127.15,40.8c7.82,0,14.3-6.29,14.3-14.3s-6.48-14.3-14.3-14.3-14.3,6.48-14.3,14.3,6.29,14.3,14.3,14.3h0ZM122.2,23.64l-2.67,5.72h-2.1l-1.34,2.67h13.54s1.53.19,3.05-.76c2.1-1.33,5.91-8.01,3.81-9.34-1.72-.95-3.05-.76-3.05-.76h-12.2l-1.14,2.48h2.1ZM128.3,24.02l-2.29,4.96h1.53c.76,0,1.53-.38,1.53-.57.95-.95,1.52-2.86,1.52-2.86,0-.38.57-1.53-.57-1.53-1.14-.19-1.72,0-1.72,0h0ZM226.86,81.97s5.15-6.1,6.67-15.25c.76-5.15-3.43-7.24-5.34-7.43h-26.31c-4,0-7.82,2.67-9.15,6.48l-5.72,14.11c-1.52,3.81,1.53,7.05,5.53,7.05h25.16c4,0,6.1-1.72,9.15-4.96h0ZM211.8,65.58c5.53,0,6.1,4,5.34,5.53-1.14,2.29-3.24,5.91-3.24,5.91,0,0-1.14,3.43-6.86,3.43-5.34,0-4.19-5.34-4.19-5.34l3.62-6.86c1.14-2.29,2.29-2.67,5.34-2.67h0ZM59.86,59.29h24.78l-3.24,6.48h-4l-4.77,10.49c-.76,1.91,0,3.43,4.19,3.81,4,.38,4.96-1.72,5.91-2.86l5.34-11.44h-4.38l2.86-6.29h15.63l-3.05,6.29h-3.24l-7.05,14.3c-1.52,2.48-5.15,7.63-19.44,7.63s-13.53-10.48-11.44-13.53c1.72-4,4-8.39,4-8.39h-5.15l3.05-6.48h0ZM156.13,59.67h24.59l-2.86,5.72h-4.19l-6.86,14.3h7.82l2.86-5.53h9.15s-5.91,13.34-6.29,13.34c-2.29-.19-37.17,0-37.17,0l3.24-7.43h4.96l6.86-14.49h-4.58l2.48-5.91h0Z"/>
  </g>
</svg>