<?xml version="1.0" encoding="UTF-8"?>
<svg id="Capa_2" data-name="Capa 2" xmlns="http://www.w3.org/2000/svg" viewBox="0 0 293.86 32.4">
  <defs>
    <style>
      .cls-1 {
        fill: #3c3c3b;
      }

      .cls-2 {
        fill: #706f6f;
      }
    </style>
  </defs>
  <g id="Capa_1-2" data-name="Capa 1">
    <g>
      <path class="cls-2" d="M26.13,12.3l-4.22,20.11H7.76l4.79-23.1C14.42,1.42,22.9.04,25.57,0h41.2l-9.13,9.53h-28.19c-1.86,0-2.97.92-3.31,2.76"/>
      <path class="cls-1" d="M0,15.28h53.41l-14.26,14.48C28.6,20.66,15.49,16.65.69,16.43l-.69-1.15Z"/>
      <path class="cls-2" d="M40.51,32.4L69.16,3.91C72.09,1,77.72.04,80,0h20.43l-6.85,32.4h-13.81l5.71-28.15-19.48,19.76h14.61l-5.93,8.39h-34.16Z"/>
      <polygon class="cls-2" points="98.92 32.4 105.68 0 120.06 0 115.04 23.67 142.54 23.67 136.38 32.4 98.92 32.4"/>
      <polygon class="cls-2" points="148.79 0 141.95 32.4 156.33 32.4 159.41 16.66 174.82 32.4 191.6 32.4 175.62 16.89 199.24 0 179.04 0 159.64 15.28 163.09 0 148.79 0"/>
      <path class="cls-2" d="M192.05,32.4h42.34l6.85-8.73h-33.56l.68-3.45h26.36l1.6-7.81h-26.23c.65-2.07,1.14-3.33,2.85-3.45h28.3L243.08,0h-33.9c-5.71,0-10.95,2.11-12.56,9.42l-4.58,22.98Z"/>
      <path class="cls-2" d="M241.46,32.4L248.2,0h33.78c6.5,0,13.24,3.45,11.64,10.69l-4.45,21.71h-14.38l4.34-19.87c.38-1.23-.38-3.26-2.28-3.33h-15.86l-4.79,23.21h-14.72Z"/>
    </g>
  </g>
</svg>