<?xml version="1.0" encoding="UTF-8"?>
<svg id="Capa_2" data-name="Capa 2" xmlns="http://www.w3.org/2000/svg" viewBox="0 0 289.32 54.4">
  <defs>
    <style>
      .cls-1 {
        fill: #706f6f;
        fill-rule: evenodd;
      }
    </style>
  </defs>
  <g id="Capa_1-2" data-name="Capa 1">
    <g>
      <path class="cls-1" d="M85.14,13.64c-7.83-.14-15.09,5.95-16.68,14.36-1.89,8.41,3.48,15.52,12.48,15.38,9.14-.29,16.1-3.77,18.28-14.8,2.03-9.72-5.66-14.8-14.07-14.94h0ZM87.61,22.78c-1.02,4.35-2.03,8.85-3.48,13.2-.44,1.74-1.6,3.77-3.34,3.48-1.45-.29-1.45-2.61-1.31-4.35.87-4.64,2.18-9.28,3.63-13.78.73-2.18,1.45-4.06,3.34-3.92,2.47.29,1.45,3.63,1.16,5.37h0Z"/>
      <path class="cls-1" d="M52.06,13.64c-7.98-.14-15.09,5.95-16.83,14.36-1.74,8.41,3.48,15.52,12.62,15.38,8.99-.29,16.25-3.77,18.28-14.8,2.03-9.72-5.8-14.8-14.07-14.94h0ZM54.53,22.78c-1.02,4.35-2.18,8.85-3.48,13.2-.44,1.74-1.6,3.77-3.48,3.48-1.45-.29-1.45-2.61-1.02-4.35.73-4.64,2.03-9.28,3.34-13.78,1.02-2.18,1.45-4.06,3.34-3.92,2.61.29,1.6,3.63,1.31,5.37h0Z"/>
      <path class="cls-1" d="M18.41,35.54c-.29,1.02-1.02,2.18-2.61,2.03-2.03.15-2.03-1.6-1.89-2.61h0l3.63-13.49c.44-1.6,1.45-2.9,4.06-2.76,1.89,0,3.19,1.02,4.5,2.32h0l3.05-4.06c-2.76-2.03-5.8-2.9-9.28-3.05-11.46.15-17.55,6.96-19.15,13.35-2.03,5.95,0,15.52,10.16,15.96h17.99l4.06-16.1h-12.48l-2.03,8.41h0Z"/>
      <path class="cls-1" d="M149.7,13.06c.15-.15.15-.29.15-.44-.29-1.6-.29-2.9-.44-4.35h.14l-.73-1.16-9.72,6.53c.58,1.74,1.74,3.63,2.47,5.37h0l8.12-5.95h0Z"/>
      <path class="cls-1" d="M148.83,36.27c.73-.87,1.6-1.6,2.47-2.47h0l.87-.73,1.02-.73,1.02-.73,1.16-.87,1.02-.58,1.31-.73,1.31-.73,1.45-.58.14-.15-2.32-4.21c-.87,1.02-2.03,2.18-3.05,3.05h0l-2.03-2.03-1.16-1.45c-.14-.58-.58-1.16-.73-1.6h0l-8.27,5.08,5.37,9.72.44-.29h0Z"/>
      <path class="cls-1" d="M149.99,21.04l-7.69-.29c.29,1.02.29,2.03,0,3.34,0,.44-.15,1.16-.44,2.03h0l8.12-5.08h0Z"/>
      <path class="cls-1" d="M149.7,14.65l-6.67,4.93,7.4.29c-.15-.44-.15-.87-.29-1.45h0l-.29-1.74c-.15-.73-.15-1.45-.15-2.03h0Z"/>
      <polygon class="cls-1" points="208.31 30.32 214.98 30.32 216.43 24.66 209.61 24.66 210.92 19.29 221.37 19.29 222.67 14.07 199.02 14.07 191.92 43.23 215.42 43.23 217.01 37.43 206.57 37.43 208.31 30.32 208.31 30.32"/>
      <polygon class="cls-1" points="190.61 14.07 182.49 23.79 179.87 14.07 165.51 14.07 170.44 30.32 167.25 43.23 181.18 43.23 183.94 31.05 197.72 14.07 190.61 14.07 190.61 14.07"/>
      <path class="cls-1" d="M280.56,14.07h-20.31l-8.12,29.16h13.93l3.19-10.74,2.76,10.74h13.64l-2.9-11.17c4.06-2.32,5.66-4.64,6.53-9.57.73-7.4-5.08-8.27-8.7-8.41h0ZM275.62,19.59c-.15,2.32-.73,4.5-1.31,6.67-.44,1.16-.58,2.61-2.61,2.61h-1.74l2.32-11.17h2.18c1.02-.15,1.6.87,1.16,1.89h0Z"/>
      <path class="cls-1" d="M235.29,14.07l-17.7,29.16h6.24l2.9-4.93h9.43l.73,4.93h13.2l-3.48-29.16h-11.32ZM230.07,32.93l4.64-7.69.73,7.69h-5.37Z"/>
      <path class="cls-1" d="M123.3,14.07h-17.55l-7.4,29.16h16.97c12.62-.14,17.12-8.27,18.42-16.25,1.16-7.98-3.92-12.48-10.45-12.91h0ZM121.84,22.05l-3.63,13.35c-.44,1.74-1.31,3.19-3.63,3.34h-2.18l5.37-20.17h2.9c1.02,0,1.74,1.45,1.16,3.48h0Z"/>
      <path class="cls-1" d="M171.31,12.04c-.15-1.02-1.16-1.45-2.03-1.89,2.03-.58,3.92-.87,4.35-1.45.15-.15-.29-.73-1.31-1.6h0l10.59-.15c3.77,0,8.41-3.48,8.56-6.96-1.02.58-2.76,1.31-4.21,1.45h0l-22.34-.29c-3.92-.44-8.27,0-10.45,1.31-3.34,2.47-3.05,6.24-2.47,10.01-.44,4.21.58,8.99,3.19,11.32,1.45-1.45,2.61-2.9,3.05-5.22.44.73,1.16,1.16,2.03,1.45.58-1.45.58-2.76.58-4.21.44.58,1.02,1.16,1.89,1.45.73-2.03.87-3.77.87-5.51,2.61,1.31,5.51,1.45,7.69.29h0ZM157.24,15.52c-.87-.44-1.6-1.16-2.61-1.6,0-1.02,0-2.18-.58-3.05,1.02.73,2.18,1.02,3.48,1.16-.29,1.16-.44,2.32-.29,3.48h0ZM163.63,7.4c-.87,1.31-1.89,1.6-3.48,1.31-1.45.87-2.9.73-4.5-.15,1.45-.58,2.76-1.31,3.34-2.47,1.89.44,3.34.44,3.92-1.45,1.45.87,2.9.73,4.35.15-.44,1.6-1.6,2.47-3.63,2.61h0Z"/>
      <path class="cls-1" d="M161.01,29.6l-1.31.73-1.31.44-1.16.73-1.02.73-1.02.73-1.16.73-.73.73-1.02.58-1.6,1.6-1.6,1.6c-1.89,2.03-3.92,4.06-5.95,6.09h0l-1.45,1.6-.87.73-.87.73-.87.87-.87.58-1.16.73-.87.73-1.31.44-1.02.73-1.45.58-1.02.58,1.45,1.89c14.36-5.95,15.09-16.25,29.89-22.92h0l-1.31-2.03-.44.15h0Z"/>
      <path class="cls-1" d="M133.02,49.91l1.31-.58.87-.73,1.16-.44.87-.73,1.02-.73.73-.73,1.74-1.31,1.45-1.45c1.74-1.74,3.34-3.77,5.08-5.51h0l.29-.29-5.95-10.59c-1.89,4.06-6.67,10.16-7.25,16.54-2.61,2.03-6.09,4.35-3.92,7.69h.15l1.31-.58,1.16-.58h0Z"/>
    </g>
  </g>
</svg>