<?xml version="1.0" encoding="UTF-8"?>
<svg id="Capa_2" data-name="Capa 2" xmlns="http://www.w3.org/2000/svg" viewBox="0 0 299.98 37.51">
  <defs>
    <style>
      .cls-1 {
        fill: #706f6f;
      }
    </style>
  </defs>
  <g id="Capa_1-2" data-name="Capa 1">
    <g>
      <path class="cls-1" d="M89.31,5.98c-.08.28-3.04,9.94-3.04,9.94h-9.45l3.04-9.94h-10.82s-8.17,26.7-8.32,27.21h10.81c.09-.28,3.49-11.41,3.49-11.41h9.45s-3.34,10.91-3.49,11.41h10.81c.09-.28,8.17-26.69,8.33-27.21h-10.81Z"/>
      <path class="cls-1" d="M146.16,8.94l-.5.37,1.02-3.33h-10.81s-8.17,26.7-8.33,27.21h10.81c.09-.28,5.03-16.43,5.03-16.43.7-2.28,2.49-3.82,4.45-3.82h2.77c.88,0,1.56.3,1.97.86.31.41.46.96.46,1.59,0,.45-.08.95-.24,1.48,0,0-4.36,14.24-4.99,16.32h10.81c.08-.28,5.87-19.18,5.87-19.18.17-.55.41-1.52.41-2.63s-.25-2.4-1.07-3.51c-1.2-1.63-3.33-2.45-6.33-2.45-5.78,0-9.58,2.2-11.34,3.51Z"/>
      <path class="cls-1" d="M103.35,7.94c.1.33,1.56,5.38,1.67,5.78.96-.4,5.01-1.98,8.51-1.98s5.24.45,5.95,1.42c.36.49.42,1.11.18,1.9l-.68,2.22-.2-.07c-4.55-1.5-8.01-1.45-8.05-1.45-3.61,0-6.86.9-9.4,2.61-2.43,1.63-4.16,3.96-5.01,6.73-.75,2.45-.56,4.53.54,6.02,1.28,1.73,3.81,2.64,7.31,2.64,3.31,0,6.91-.85,10.14-2.41l.42-.2s-.51,1.66-.63,2.05h10.81c.08-.28,5.76-18.81,5.76-18.81.24-.78.35-1.52.35-2.23,0-1.18-.33-2.24-.99-3.14-1.74-2.35-5.75-3.59-11.6-3.59-7.16,0-13.93,2.12-15.1,2.51ZM111.91,21.32c.82,0,3.65.06,5.38.88l.16.08-1.21,3.96-.08.04c-1.72.8-4.15,1.35-6.05,1.35s-3.09-.42-3.69-1.23c-.25-.33-.37-.73-.37-1.16,0-.26.04-.54.13-.82.59-1.93,2.73-3.09,5.72-3.09Z"/>
      <path class="cls-1" d="M188.3,5.84c-.11.08-10.36,8.16-10.36,8.16l2.51-8.16h-10.8s-8.3,27.11-8.45,27.62h10.8c.08-.28,3.43-11.22,3.43-11.22,0,0,7.76,11.05,7.88,11.22h11.54c-.42-.61-9.91-14.14-9.91-14.14,0,0,15.52-12.79,16.35-13.47h-12.98Z"/>
      <path class="cls-1" d="M192.8,19.64h0c-1.18,3.84-.73,7.44,1.26,10.12,2.24,3.03,6.28,4.7,11.35,4.7,11.94,0,18.68-4.61,21.85-14.94,1.18-3.84.73-7.43-1.26-10.12-2.24-3.04-6.28-4.71-11.35-4.71-10.98,0-18.94,5.45-21.84,14.94ZM203.37,25.7c-.94-1.27-.97-3.29-.09-6.17h0c1.07-3.5,3.51-7.66,9.05-7.66,2.13,0,3.55.53,4.35,1.61.94,1.27.97,3.29.09,6.17-1.07,3.5-3.5,7.66-9.05,7.66-2.12,0-3.55-.53-4.35-1.61Z"/>
      <path class="cls-1" d="M228.84,19.64h0c-1.18,3.84-.73,7.44,1.26,10.12,2.24,3.04,6.28,4.71,11.36,4.71,11.94,0,18.68-4.61,21.84-14.94,1.17-3.84.73-7.43-1.26-10.12-2.24-3.04-6.27-4.71-11.36-4.71-10.98,0-18.94,5.45-21.84,14.94ZM248.37,11.87c2.12,0,3.55.53,4.35,1.61.94,1.27.97,3.29.09,6.17-1.07,3.5-3.51,7.66-9.05,7.66-2.12,0-3.55-.53-4.35-1.61-.94-1.27-.97-3.29-.09-6.17h0c1.07-3.5,3.51-7.66,9.05-7.66Z"/>
      <path class="cls-1" d="M287.69,5.6c-.11.09-10.51,8.87-10.51,8.87l2.7-8.87h-10.8s-8.43,27.54-8.59,28.05h10.8c.09-.28,3.48-11.4,3.48-11.4,0,0,8.36,11.24,8.48,11.4h11.85c-.46-.62-10.62-14.27-10.62-14.27,0,0,14.66-13.1,15.49-13.78h-12.29Z"/>
      <path class="cls-1" d="M63.95,1.33l-.14-1.33h-9.16c1.05,10.82-6.41,22.88-17.04,25.76h0s-.01,0-.02,0c-.06.01-.19.02-.21-.14,0-.05.02-.11.06-.14h0c8.86-5.92,13.54-15.45,12.74-25.49h-8.97c.39,8.82-5.53,16.85-14.58,20.1-.06.01-.19.02-.21-.14,0-.05.03-.1.07-.13h0c6.54-4.48,10.48-11.14,10.24-19.83h-8.97c-.09,10.4-9.44,17.67-27.74,17.67.26.15.52.29.77.43,11.91,6.51,18.12,10.51,26.91,17.68,1.35,1.16,3.24,1.79,5.13,1.73,23.72-1.65,32.26-22.47,31.14-36.18Z"/>
    </g>
  </g>
</svg>