<?xml version="1.0" encoding="UTF-8"?>
<svg id="Capa_2" data-name="Capa 2" xmlns="http://www.w3.org/2000/svg" viewBox="0 0 286.54 44.16">
  <defs>
    <style>
      .cls-1 {
        fill: #706f6f;
        fill-rule: evenodd;
      }
    </style>
  </defs>
  <g id="Capa_1-2" data-name="Capa 1">
    <g>
      <polygon class="cls-1" points="103.95 1.17 136.04 1.17 114.45 14.64 142.44 14.42 133.84 28.85 109.72 29.14 116.66 41.47 85.44 41.47 75.55 21.4 103.95 1.17 103.95 1.17"/>
      <path class="cls-1" d="M246.82,3.98c19.74-1.1,39.27,5.76,39.72,16.52.45,10.76-16.61,22.47-36.35,23.57-19.74,1.1-37.96-7.79-38.4-18.55-.45-10.76,15.29-20.44,35.03-21.53h0ZM247.94,16.69c6.62-.37,13.17,1.94,13.32,5.54.15,3.62-5.57,7.54-12.2,7.91-6.62.37-12.73-2.61-12.88-6.22-.15-3.62,5.13-6.86,11.76-7.23h0Z"/>
      <polygon class="cls-1" points="153.14 1.69 182.94 1.69 173.87 19.08 196.3 1.69 226.1 1.69 197.27 21.1 209.01 41.98 180.09 41.98 171.26 24.07 161.91 41.98 132.55 41.98 153.14 1.69 153.14 1.69"/>
      <polygon class="cls-1" points="20.59 0 50.39 0 41.32 17.39 63.75 0 93.55 0 64.72 19.41 76.46 40.29 47.54 40.29 38.71 22.38 29.36 40.29 0 40.29 20.59 0 20.59 0"/>
    </g>
  </g>
</svg>