<?xml version="1.0" encoding="UTF-8"?>
<svg id="Capa_2" data-name="Capa 2" xmlns="http://www.w3.org/2000/svg" viewBox="0 0 213.15 62.79">
  <defs>
    <style>
      .cls-1 {
        fill: #706f6f;
      }

      .cls-1, .cls-2 {
        fill-rule: evenodd;
      }

      .cls-2 {
        fill: #3c3c3b;
      }
    </style>
  </defs>
  <g id="Capa_1-2" data-name="Capa 1">
    <g>
      <polygon class="cls-1" points="0 0 19.91 0 31.16 37.74 31.34 37.74 42.76 0 62.16 0 62.16 61.46 49.34 61.46 49.34 18.01 49.17 18.01 36.88 61.46 25.11 61.46 12.99 18.01 12.81 18.01 12.81 61.46 0 61.46 0 0 0 0"/>
      <polygon class="cls-1" points="173.08 0 185.89 0 185.89 12.12 173.08 12.12 173.08 0 173.08 0"/>
      <polygon class="cls-1" points="173.08 16.45 185.89 16.45 185.89 61.46 173.08 61.46 173.08 16.45 173.08 16.45"/>
      <polygon class="cls-1" points="192.99 0 205.8 0 205.8 61.46 192.99 61.46 192.99 0 192.99 0"/>
      <path class="cls-2" d="M66.89,38.96c0-13.16,10.67-23.83,23.83-23.83s23.83,10.67,23.83,23.83-10.67,23.83-23.83,23.83-23.83-10.67-23.83-23.83h0ZM90.7,49.89c6.03,0,10.92-4.89,10.92-10.92s-4.89-10.92-10.92-10.92-10.92,4.89-10.92,10.92,4.89,10.92,10.92,10.92h0Z"/>
      <path class="cls-1" d="M119.93,61.46V0h12.81v19.91c3.55-3.03,7.62-4.5,12.29-4.5,12.99,0,22.68,10.99,22.68,23.63s-9.78,23.46-22.68,23.46c-4.85,0-9-1.38-12.29-5.02v3.98h-12.81ZM143.8,49.89c6.03,0,10.92-4.89,10.92-10.92s-4.89-10.92-10.92-10.92-10.92,4.89-10.92,10.92,4.89,10.92,10.92,10.92h0Z"/>
      <path class="cls-1" d="M206.78,3.51c0,1.82,1.46,3.19,3.2,3.19s3.18-1.37,3.18-3.19-1.45-3.15-3.18-3.15-3.2,1.36-3.2,3.15h0ZM207.36,3.51c0-1.52,1.14-2.69,2.62-2.69s2.6,1.17,2.6,2.69-1.14,2.72-2.6,2.72-2.62-1.17-2.62-2.72h0ZM208.74,5.37h.58v-1.59h.61l1.01,1.59h.62l-1.06-1.64c.55-.06.97-.34.97-1.01,0-.71-.41-1.06-1.3-1.06h-1.43v3.7h0ZM209.32,2.13h.76c.39,0,.81.08.81.57,0,.59-.47.61-.97.61h-.6v-1.18h0Z"/>
    </g>
  </g>
</svg>