<?xml version="1.0" encoding="UTF-8"?>
<svg id="Capa_2" data-name="Capa 2" xmlns="http://www.w3.org/2000/svg" xmlns:xlink="http://www.w3.org/1999/xlink" viewBox="0 0 295.42 40.01">
  <defs>
    <style>
      .cls-1 {
        mask: url(#mask);
      }

      .cls-2 {
        filter: url(#luminosity-noclip);
      }

      .cls-3 {
        filter: url(#luminosity-noclip-3);
      }

      .cls-4 {
        filter: url(#luminosity-noclip-5);
      }

      .cls-5 {
        fill: url(#linear-gradient-2);
      }

      .cls-5, .cls-6, .cls-7 {
        mix-blend-mode: multiply;
      }

      .cls-6 {
        fill: url(#linear-gradient-3);
      }

      .cls-8 {
        mask: url(#mask-2);
      }

      .cls-9 {
        mask: url(#mask-3);
      }

      .cls-10 {
        mask: url(#mask-4);
      }

      .cls-11 {
        mask: url(#mask-5);
      }

      .cls-12 {
        mask: url(#mask-1);
      }

      .cls-13 {
        fill: #706f6f;
      }

      .cls-14 {
        fill: #878787;
      }

      .cls-7 {
        fill: url(#linear-gradient);
      }
    </style>
    <filter id="luminosity-noclip" x="9.31" y="27.99" width="36.33" height="12.02" color-interpolation-filters="sRGB" filterUnits="userSpaceOnUse">
      <feFlood flood-color="#fff" result="bg"/>
      <feBlend in="SourceGraphic" in2="bg"/>
    </filter>
    <filter id="luminosity-noclip-2" x="9.31" y="-6616.33" width="36.33" height="32766" color-interpolation-filters="sRGB" filterUnits="userSpaceOnUse">
      <feFlood flood-color="#fff" result="bg"/>
      <feBlend in="SourceGraphic" in2="bg"/>
    </filter>
    <mask id="mask-1" x="9.31" y="-6616.33" width="36.33" height="32766" maskUnits="userSpaceOnUse"/>
    <linearGradient id="linear-gradient" x1="27.47" y1="40.01" x2="27.47" y2="27.99" gradientUnits="userSpaceOnUse">
      <stop offset="0" stop-color="#4d4d4d"/>
      <stop offset=".5" stop-color="#000"/>
      <stop offset=".54" stop-color="#080808"/>
      <stop offset=".61" stop-color="#1e1e1e"/>
      <stop offset=".69" stop-color="#444"/>
      <stop offset=".79" stop-color="#777"/>
      <stop offset=".9" stop-color="#b8b8b8"/>
      <stop offset="1" stop-color="#fff"/>
    </linearGradient>
    <mask id="mask" x="9.31" y="27.99" width="36.33" height="12.02" maskUnits="userSpaceOnUse">
      <g class="cls-2">
        <g class="cls-12">
          <path class="cls-7" d="M45.64,28.05c-4.59,7.03-12.67,11.96-20.84,11.96-3.69,0-6.93-1-9.52-2.74-2.86-1.92-4.94-4.75-5.96-8.14h0c3.82-.38,8.52-.73,14.06-.96.07,0,2.44-.08,2.46-.08,5.14-.16,16.69-.07,19.81-.04h0Z"/>
        </g>
      </g>
    </mask>
    <filter id="luminosity-noclip-3" x="13.28" y="0" width="35.28" height="10.75" color-interpolation-filters="sRGB" filterUnits="userSpaceOnUse">
      <feFlood flood-color="#fff" result="bg"/>
      <feBlend in="SourceGraphic" in2="bg"/>
    </filter>
    <filter id="luminosity-noclip-4" x="13.28" y="-6616.33" width="35.28" height="32766" color-interpolation-filters="sRGB" filterUnits="userSpaceOnUse">
      <feFlood flood-color="#fff" result="bg"/>
      <feBlend in="SourceGraphic" in2="bg"/>
    </filter>
    <mask id="mask-3" x="13.28" y="-6616.33" width="35.28" height="32766" maskUnits="userSpaceOnUse"/>
    <linearGradient id="linear-gradient-2" x1="16.37" y1="2.26" x2="47.36" y2="13.54" gradientUnits="userSpaceOnUse">
      <stop offset=".09" stop-color="#fff"/>
      <stop offset=".69" stop-color="#5d5d5d"/>
      <stop offset="1" stop-color="#0d0d0d"/>
    </linearGradient>
    <mask id="mask-2" x="13.28" y="0" width="35.28" height="10.75" maskUnits="userSpaceOnUse">
      <g class="cls-3">
        <g class="cls-9">
          <path class="cls-5" d="M46.28,10.22c.58,0,1.59,0,2.29,0-2.13-6.1-7.78-10.22-15.27-10.22s-15.31,4.37-20.01,10.75c3.38-.32,7.79-.57,12.11-.64.84-.02,2.47-.36,3.38-1.71,1.69-2.51,3.36-5.05,5.73-5.9.04-.02.08-.03.12-.05,3.61-1.38,8.37,1.97,11.66,7.77Z"/>
        </g>
      </g>
    </mask>
    <filter id="luminosity-noclip-5" x="11.17" y="28" width="34.46" height="12.01" color-interpolation-filters="sRGB" filterUnits="userSpaceOnUse">
      <feFlood flood-color="#fff" result="bg"/>
      <feBlend in="SourceGraphic" in2="bg"/>
    </filter>
    <filter id="luminosity-noclip-6" x="11.17" y="-6616.33" width="34.46" height="32766" color-interpolation-filters="sRGB" filterUnits="userSpaceOnUse">
      <feFlood flood-color="#fff" result="bg"/>
      <feBlend in="SourceGraphic" in2="bg"/>
    </filter>
    <mask id="mask-5" x="11.17" y="-6616.33" width="34.46" height="32766" maskUnits="userSpaceOnUse"/>
    <linearGradient id="linear-gradient-3" x1="20.45" y1="41.2" x2="35.89" y2="20.71" gradientUnits="userSpaceOnUse">
      <stop offset=".01" stop-color="#000"/>
      <stop offset=".05" stop-color="#131313"/>
      <stop offset=".16" stop-color="#444"/>
      <stop offset=".26" stop-color="#6b6b6b"/>
      <stop offset=".36" stop-color="#8a8a8a"/>
      <stop offset=".46" stop-color="#a1a1a1"/>
      <stop offset=".55" stop-color="#aeaeae"/>
      <stop offset=".64" stop-color="#b3b3b3"/>
      <stop offset="1" stop-color="#fff"/>
    </linearGradient>
    <mask id="mask-4" x="11.17" y="28" width="34.46" height="12.01" maskUnits="userSpaceOnUse">
      <g class="cls-4">
        <g class="cls-11">
          <path class="cls-6" d="M45.64,28.05c-.78,0-2.07-.02-3.66-.03-3.68-.02-9.05-.04-12.88,0-.84.69-1.81,1.71-2.25,2.63-2.98,5.03-4.01,9.97-13.22,2.43,0,0-1.47-.14-2.46.06,1.01,1.54,2.3,2.87,3.82,3.94.11.07.21.14.29.19.17.11.34.23.52.33,2.5,1.53,5.56,2.41,9,2.41,8.17,0,16.25-4.93,20.84-11.96Z"/>
        </g>
      </g>
    </mask>
  </defs>
  <g id="Capa_1-2" data-name="Capa 1">
    <g>
      <path class="cls-13" d="M223.83,25.85c-1.78-9.61,7.03-20.24,18.14-23.31,12.93-2.6,23.8,2.36,25.78,12.28,1.38,9.69-6.09,19.84-18.61,22.76-11.85,2.2-23.26-2.05-25.31-11.73h0ZM240.47,14.19c-4.33,4.94-5.45,11.38-2.48,14.37,2.95,3,8.85,1.43,13.18-3.51,4.33-4.93,5.45-11.37,2.49-14.37-2.96-3-8.86-1.43-13.19,3.51h0ZM180.34,12.31c-.08-1.31-.71-2.27-1.88-2.9-1.17-.63-2.87-.95-5.09-.95h-2.25l-2.14,10.02h1.81c3.13,0,5.53-.53,7.2-1.59,1.69-1.08,2.47-2.61,2.34-4.59h0ZM155.7,36.74s-3.37.15-2.91-3.06l5.88-27.54c.34-1.58,1.89-2.87,3.48-2.87h14.2c2.61,0,4.88.17,6.82.46,1.96.3,3.67.8,5.12,1.51,1.44.71,2.56,1.64,3.37,2.79.8,1.13,1.26,2.84,1.37,4.54.25,3.86-1.52,6.98-5.3,9.34-3.77,2.37-9.18,3.27-16.24,3.27h-3.9l-2.48,11.55h-9.4ZM100.79,12.18c-.09-1.34-.67-2.3-1.74-2.85-1.06-.57-2.59-.86-4.6-.86h-3.19l-1.93,9.01h3.17c2.74,0,4.83-.46,6.28-1.39,1.44-.95,2.11-2.25,2.01-3.91h0ZM85.23,36.74h-9.56c-.66-.02-3.16-.27-2.75-3.06l5.88-27.54c.34-1.58,1.89-2.87,3.48-2.87h16.18c2.35,0,4.39.13,6.15.4,1.77.27,3.31.73,4.62,1.39,1.3.66,2.17,1.29,3.04,2.58.9,1.33,1.12,2.33,1.24,3.93.28,3.85-1.39,6.45-4.8,8.64-3.16,1.66-7.51,1.93-8.55,1.95,0,0-1.07.24.16.55,0,0,1.51.39,2.76,1.5,2.67,2.13,4.64,4.33,10.71,12.52h-14.34s-2.46-4.95-7.59-12.33c-1.14-1.65-2.99-1.37-3.68-1.45l-2.94,13.78h0ZM283.83,30.27h11.59l-.8,3.72c-.31,1.51-1.9,2.74-3.44,2.74h-18.24c-.67-.02-3.16-.27-2.75-3.06l5.88-27.54c.34-1.58,1.89-2.87,3.48-2.87h10.07s-5.78,27-5.78,27h0ZM133.67,16.97h15.21l-.77,3.51c-.3,1.55-1.89,2.87-3.47,2.87h-12.33l-1.48,6.92h15.23l-.79,3.72c-.31,1.51-1.9,2.74-3.44,2.74h-21.89c-.66-.02-3.16-.27-2.75-3.06l5.88-27.54c.34-1.58,1.89-2.87,3.48-2.87h25.28s-.77,3.58-.77,3.58c-.34,1.59-1.9,2.87-3.48,2.87h-12.35l-1.54,7.24h0ZM226.95,3.28l-.76,3.59c-.46,1.67-1.69,2.83-3.48,2.86h-.81c-7.23.03-7.69,2-9.08,8.71l-1.72,7.97c-2.11,10.15-11.27,10.34-12.05,10.34h-18.33s.77-3.6.77-3.6c.47-1.76,1.78-2.75,3.48-2.87h4.4c7.24-.02,7.69-1.98,9.07-8.69l1.73-7.97c2.18-10.11,13.21-10.34,14.9-10.34h11.88Z"/>
      <g>
        <path class="cls-13" d="M8.69,22.32c.07-.75.19-1.52.36-2.3v-.03s-.04,0-.06,0c-1.15.12-2.95.25-4.29.42-2.34.31-4.47.62-4.65.83-.48.57,2.72.99,7.61,1.06.33,0,.68,0,1.03,0Z"/>
        <path class="cls-14" d="M33.29,0c-7.71,0-15.31,4.37-20.01,10.75,0,0-10.94.78-11.51,1.76C.04,15.81,0,21.34,0,21.34v-.02s.03-.04.05-.07c.18-.21,2.31-.52,4.65-.83,1.34-.17,3.15-.31,4.29-.42.02,0,.04,0,.06,0h0c3.8-.37,11.04-.89,15.18-1.01,10.15-.28,18.91-.2,24.98.07,1.76-10.61-5.19-19.06-15.92-19.06Z"/>
        <path class="cls-13" d="M45.64,28.05c-3.12-.03-14.68-.12-19.81.04-.02,0-2.38.08-2.46.08-5.54.23-10.23.58-14.06.96h0c1.95,6.46,7.73,10.88,15.48,10.88,8.17,0,16.25-4.93,20.84-11.96h0Z"/>
        <path class="cls-14" d="M49.22,19.06c-6.07-.28-14.83-.36-24.98-.08-4.14.11-11.39.63-15.19,1.01h0c-.09.42-.22,1.11-.33,2.03,0,.02,0,.04,0,.05-.04.31-.06.62-.08.93,0,.02,0,.04,0,.06-.02.3-.03.6-.03.9,0,.19,0,.37,0,.56,0,.16,0,.31,0,.46.01.33.03.66.07.98,0,.09.02.19.03.28.03.25.06.5.1.75.02.1.04.2.05.3.04.24.09.48.14.71.02.1.04.19.07.28.06.24.12.48.19.72,0,.04.02.08.03.12,3.82-.38,8.52-.73,14.06-.95.07,0,2.44-.09,2.45-.09,5.14-.16,16.69-.07,19.81-.04h0c.5,0,.8,0,.8,0,2.63.04,3.7.07,6.43.21,1.26.07,3.35.15,3.46.42,0,0,0,0,0,0,0,0,0,.01,0,.02h0c1.73-3.2,1.75-8.49,1.75-8.49.09-.46-3.22-.91-8.86-1.16"/>
        <g class="cls-1">
          <path class="cls-13" d="M45.64,28.05c-4.59,7.03-12.67,11.96-20.84,11.96-3.69,0-6.93-1-9.52-2.74-2.86-1.92-4.94-4.75-5.96-8.14h0c3.82-.38,8.52-.73,14.06-.96.07,0,2.44-.08,2.46-.08,5.14-.16,16.69-.07,19.81-.04h0Z"/>
        </g>
        <g class="cls-8">
          <path class="cls-13" d="M46.28,10.22c.58,0,1.59,0,2.29,0-2.13-6.1-7.78-10.22-15.27-10.22s-15.31,4.37-20.01,10.75c3.38-.32,7.79-.57,12.11-.64.84-.02,2.47-.36,3.38-1.71,1.69-2.51,3.36-5.05,5.73-5.9.04-.02.08-.03.12-.05,3.61-1.38,8.37,1.97,11.66,7.77Z"/>
        </g>
        <g class="cls-10">
          <path class="cls-13" d="M45.64,28.05c-.78,0-2.07-.02-3.66-.03-3.68-.02-9.05-.04-12.88,0-.84.69-1.81,1.71-2.25,2.63-2.98,5.03-4.01,9.97-13.22,2.43,0,0-1.47-.14-2.46.06,1.01,1.54,2.3,2.87,3.82,3.94.11.07.21.14.29.19.17.11.34.23.52.33,2.5,1.53,5.56,2.41,9,2.41,8.17,0,16.25-4.93,20.84-11.96Z"/>
        </g>
        <path class="cls-13" d="M56.34,28.68c-.11-.28-2.2-.36-3.46-.42-2.73-.14-3.81-.17-6.43-.21,0,0-.31,0-.81,0,0,0,0,0,0,0h0c-.46.7-.95,1.37-1.46,2.02h0c7.22-.22,11.97-.72,12.17-1.38,0-.01,0,0,0,0Z"/>
      </g>
    </g>
  </g>
</svg>