<?xml version="1.0" encoding="UTF-8"?>
<svg id="Capa_2" data-name="Capa 2" xmlns="http://www.w3.org/2000/svg" viewBox="0 0 279.06 72.87">
  <defs>
    <style>
      .cls-1 {
        fill: #706f6f;
      }
    </style>
  </defs>
  <g id="Capa_1-2" data-name="Capa 1">
    <g>
      <path class="cls-1" d="M269.68,10.45V2.93h2.62c.67,0,1.67.07,1.96.2.29.14.52.37.71.7.18.33.28.73.28,1.2,0,.59-.1,1.1-.42,1.42-.63.63-1.17.68-1.73.68.33,0,.49.4.66.63.17.23.41.63.71,1.22l.75,1.47h-1.49l-.9-1.64c-.32-.59-.54-.96-.66-1.11-.12-.15-.24-.25-.37-.31-.13-.06-.34-.09-.63-.09h-.26v3.14h-1.24ZM270.92,6.11h.92c.56,0,1.45-.03,1.6-.07.15-.05.28-.15.38-.3.09-.15.14-.35.14-.6s-.05-.43-.14-.58c-.1-.15-.23-.25-.39-.3-.11-.04-.98-.06-1.53-.06h-.97v1.91Z"/>
      <path class="cls-1" d="M272.32,0c-3.73,0-6.75,3.02-6.75,6.75s3.02,6.75,6.75,6.75,6.75-3.02,6.75-6.75-3.02-6.75-6.75-6.75M272.32,11.85c-2.72,0-4.93-2.29-4.93-5.11s2.21-5.11,4.93-5.11,4.93,2.29,4.93,5.11-2.21,5.11-4.93,5.11"/>
      <polygon class="cls-1" points="85.49 28.71 78.27 28.71 78.27 7.28 54.14 7.28 54.14 70.54 78.27 70.54 78.27 49.11 85.49 49.11 85.49 70.54 109.62 70.54 109.62 7.28 85.49 7.28 85.49 28.71"/>
      <polygon class="cls-1" points="0 27.68 12.62 27.68 12.62 70.54 36.75 70.54 36.75 27.68 49.37 27.68 49.37 7.28 0 7.28 0 27.68"/>
      <path class="cls-1" d="M225.89,57.26h-1.59l-1.3,6.07h1.63c2.16,0,3.36-1.7,3.36-3.74,0-1.39-.59-2.33-2.11-2.33"/>
      <path class="cls-1" d="M259.02,24.18V7.28h-41.91v42.86h-13.65V7.28h-24.13v63.27h79.7v-20.4h-17.78v-7.33h13.97v-11.98h-13.97v-6.65h17.78ZM195.48,59.46c1.51.39,2.58.97,2.58,2.7,0,2.31-2.09,3.19-3.93,3.19-2.66,0-4.01-1.11-4.01-3.43h2.01c-.07,1.36.86,1.78,2.08,1.78.85,0,1.83-.4,1.83-1.36s-1.24-1.13-2.44-1.5c-1.22-.38-2.43-.93-2.43-2.59,0-2.15,1.96-3,3.82-3,1.97,0,3.62.88,3.62,3.1h-2.01c.04-1.08-.74-1.46-1.73-1.46-.81,0-1.69.31-1.69,1.2,0,.96,1.63,1.2,2.29,1.36M205.85,65.11l-.24-6.88h-.03l-2.99,6.88h-2.13l-.66-9.63h2.12l.13,7.06h.03l3.05-7.06h2.02l.24,7.03h.03l2.94-7.03h2.12l-4.52,9.63h-2.11ZM219.34,60.97h-4.84l-.5,2.36h5.32l-.38,1.78h-7.43l2.02-9.63h7.35l-.36,1.78h-5.24l-.43,2.06h4.85l-.35,1.65ZM224.54,65.11h-4.04l2.04-9.63h3.48c2.68,0,4.09,1.39,4.09,3.75,0,3.36-1.86,5.88-5.57,5.88M238.35,60.97h-4.84l-.5,2.36h5.32l-.38,1.78h-7.43l2.02-9.63h7.35l-.36,1.78h-5.24l-.43,2.06h4.84l-.35,1.65ZM241.55,55.48h2.19l2.62,6.85h.03l1.38-6.85h1.94l-2.04,9.63h-2.12l-2.64-6.76h-.03l-1.38,6.76h-1.98l2.04-9.63Z"/>
      <path class="cls-1" d="M148.36,47.12c0,2.06-1.67,3.51-3.73,3.51s-3.73-1.45-3.73-3.51V6.96l-24.13.32v41.86c0,12.99,11.38,23.73,27.86,23.73s27.86-10.74,27.86-23.72V7.28l-24.13-.32v40.17Z"/>
    </g>
  </g>
</svg>